<?xml version="1.0" encoding="UTF-8" standalone="no"?>
<svg
   xmlns:dc="http://purl.org/dc/elements/1.1/"
   xmlns:cc="http://creativecommons.org/ns#"
   xmlns:rdf="http://www.w3.org/1999/02/22-rdf-syntax-ns#"
   xmlns:svg="http://www.w3.org/2000/svg"
   xmlns="http://www.w3.org/2000/svg"
   xmlns:sodipodi="http://sodipodi.sourceforge.net/DTD/sodipodi-0.dtd"
   xmlns:inkscape="http://www.inkscape.org/namespaces/inkscape"
   version="1.1"
   x="0px"
   y="0px"
   viewBox="0 0 2160 3840"
   xml:space="preserve"
   id="svg928"
   sodipodi:docname="background.svg"
   width="2160"
   height="3840"
   inkscape:version="1.0.1 (3bc2e81, 2020-09-07)"><metadata
   id="metadata934"><rdf:RDF><cc:Work
       rdf:about=""><dc:format>image/svg+xml</dc:format><dc:type
         rdf:resource="http://purl.org/dc/dcmitype/StillImage" /><dc:title></dc:title></cc:Work></rdf:RDF></metadata><defs
   id="defs932" /><sodipodi:namedview
   pagecolor="#ffffff"
   bordercolor="#666666"
   borderopacity="1"
   objecttolerance="10"
   gridtolerance="10"
   guidetolerance="10"
   inkscape:pageopacity="0"
   inkscape:pageshadow="2"
   inkscape:window-width="1848"
   inkscape:window-height="1016"
   id="namedview930"
   showgrid="false"
   inkscape:zoom="0.15392857"
   inkscape:cx="1000.7772"
   inkscape:cy="1470.2627"
   inkscape:window-x="72"
   inkscape:window-y="27"
   inkscape:window-maximized="1"
   inkscape:current-layer="Layer_1" />
<style
   type="text/css"
   id="style2">
	.st0{fill:#D1E6E9;}
	.st1{fill:#A6CDD1;}
	.st2{fill:#FFFFFF;}
	.st3{fill:#E6E6E6;}
	.st4{fill:#EF4036;stroke:#000000;stroke-width:8;stroke-miterlimit:10;}
	.st5{font-family:'Bangers-Regular';}
	.st6{font-size:268.3119px;}
	.st7{font-size:218.3607px;}
	.st8{fill:#7F8180;}
	.st9{fill:#F37323;stroke:#000000;stroke-width:18;stroke-miterlimit:10;}
	.st10{fill:#FFD143;}
	.st11{fill:none;}
	.st12{fill:#EF4432;}
	.st13{fill:#F79433;}
	.st14{fill:#171717;}
	.st15{fill:#EF4036;}
	.st16{fill:#FFFFFF;stroke:#000000;stroke-width:9;stroke-miterlimit:10;}
	.st17{font-size:242.3333px;}
</style>

<g
   id="Layer_1">
	
	
	
	
	
	<path
   id="XMLID_72_"
   class="st1"
   d="m 2004.6063,1805.7004 c -18.5765,-26.7593 -40.9832,-49.8074 -66.8372,-68.5584 -48.0692,-34.9628 -106.2884,-53.9091 -165.2737,-53.9091 l -1.149,-1.5626 c -23.1728,-33.4003 -66.6457,-46.0963 -103.6073,-30.2751 -12.8312,5.4691 -25.2794,11.5241 -37.3446,17.7744 -22.7897,-21.8762 -50.5588,-33.0096 -80.4344,-32.2283 -19.3426,0.586 -36.9616,4.6878 -51.3249,8.0082 -31.5992,7.4223 -34.4719,6.641 -43.0899,-2.7345 -13.5972,-14.8445 -35.621,-16.4071 -51.3248,-3.9064 l -11.2992,8.9848 c -8.4264,6.641 -13.5972,16.7978 -14.5548,27.5406 -0.766,10.7427 2.6812,21.6808 9.9586,29.4937 45.5795,50.5887 96.7129,38.674 130.4187,30.6658 7.852,-1.7579 15.3209,-3.5159 22.5983,-4.6878 -12.0652,10.7428 -23.3643,22.0715 -33.7059,33.5956 -27.003,30.6657 -29.6841,75.7853 -6.3198,109.3809 l 2.2981,3.3205 c -30.8332,89.0673 -17.8105,186.5334 36.004,264.272 6.7029,9.7662 14.1718,19.1417 22.0237,27.9312 71.8165,80.4731 179.637,110.9435 278.265,86.3328 33.8974,-8.3989 66.6457,-23.4388 96.5213,-44.9243 62.0495,-44.729 103.2243,-111.5295 116.247,-187.9008 12.8312,-76.176 -4.2132,-153.1332 -48.0692,-216.6132 z"
   style="stroke-width:1.93407" />
	
	<path
   id="XMLID_91_"
   class="st1"
   d="m 1342.276,2736.9058 c -16.2836,-13.4748 -40.3085,-15.7458 -65.1342,-6.5103 -2.536,-9.5383 -9.61,-29.8261 -25.4931,-41.0298 -11.3451,-8.0243 -24.8258,-9.8411 -40.175,-5.299 -22.2898,6.5102 -36.4378,24.0728 -40.9759,50.7194 -2.1355,12.8692 -1.6016,24.8299 -0.9343,31.6429 -6.5401,0 -18.5525,0.9084 -31.3658,6.3589 -17.7518,7.2673 -40.8424,24.8298 -49.518,66.3138 -6.4067,30.5831 10.8112,69.6446 39.3741,89.024 26.1605,17.8654 54.59,15.443 78.8818,-6.056 3.8707,9.5382 12.6799,27.2522 28.0291,34.9737 5.0719,2.5738 10.2773,3.7851 15.7497,3.7851 6.5401,0 13.3471,-1.8169 20.5546,-5.4505 37.5056,-18.9252 32.4337,-59.955 28.8299,-76.1549 9.343,-0.3028 27.3617,-3.0281 42.1771,-17.714 13.7476,-13.6261 21.3555,-34.0653 22.4232,-60.8634 1.3348,-36.3363 -11.4785,-54.6559 -22.4232,-63.7399 z m -205.413,60.8633 c -15.0823,5.9047 -26.4274,15.7458 -34.8362,26.0411 0,0 0,-0.1514 0.1335,-0.1514 8.2753,-10.4467 19.4869,-20.4392 34.7027,-25.8897 z"
   style="stroke-width:1.42154" />
	<path
   id="XMLID_76_"
   class="st2"
   d="m 1976.0712,1786.9494 c -18.5765,-26.7593 -40.9832,-49.8074 -66.8372,-68.5584 -48.0691,-34.9628 -106.2884,-53.9091 -165.2737,-53.9091 l -1.149,-1.5626 c -23.1728,-33.4003 -66.6457,-46.0963 -103.6073,-30.2751 -12.8312,5.469 -25.2794,11.5241 -37.3445,17.7744 -22.7898,-21.8762 -50.5589,-33.0096 -80.4345,-32.2283 -19.3426,0.586 -36.9616,4.6877 -51.3249,8.0082 -31.5992,7.4223 -34.4719,6.641 -43.0899,-2.7345 -13.5972,-14.8445 -35.6209,-16.4071 -51.3248,-3.9064 l -11.2991,8.9848 c -8.4265,6.641 -13.5973,16.7978 -14.5548,27.5406 -0.7661,10.7427 2.6811,21.6808 9.9585,29.4937 45.5795,50.5887 96.7129,38.674 130.4188,30.6658 7.8519,-1.758 15.3208,-3.5159 22.5982,-4.6878 -12.0652,10.7428 -23.3643,22.0715 -33.7059,33.5956 -27.003,30.6657 -29.6841,75.7853 -6.3198,109.3809 l 2.2981,3.3204 c -30.8332,89.0673 -17.8105,186.5335 36.004,264.2721 6.7029,9.7661 14.1718,19.1416 22.0237,27.9312 71.8165,80.4731 179.637,110.9435 278.265,86.3328 33.8974,-8.3989 66.6457,-23.4388 96.5214,-44.9243 62.0494,-44.729 103.2242,-111.5295 116.2469,-187.9008 13.0227,-76.3713 -4.2132,-153.3286 -48.0692,-216.6132 z"
   style="stroke-width:1.93407" />
	<polygon
   id="XMLID_62_"
   class="st1"
   points="465,993.7 424.6,850.7 373,989.5 293.4,885.2 280.2,992.3 160.2,905.1 203.4,1038.1 80.8,1001 168.9,1093.2 33.7,1137.7 178.5,1172.7 119.7,1288.2 244.8,1228.3 227.9,1346.4 322.9,1269.8 350.5,1390.9 414.2,1285.1 476.1,1363.8 510.6,1264 649.5,1303.7 577.7,1206.6 698.8,1171.5 581.2,1120.9 684.7,1022.7 535,1039.8 543.7,931 "
   transform="matrix(1.3347176,0,0,1.5140139,1001.6561,1667.2549)" />
	<path
   id="XMLID_27_"
   class="st1"
   d="m 2099.485,447.95153 c -14.9559,-14.92689 -31.1179,-24.95242 -42.6966,-31.19052 6.7542,-15.81805 16.162,-43.22115 18.5742,-75.08004 5.0657,-67.72799 -23.8811,-123.87093 -83.7046,-161.96792 -65.3716,-41.66163 -126.6425,-34.30958 -166.6856,-20.94221 -19.2979,6.46089 -35.4599,14.92689 -47.5211,22.27894 -4.5832,-13.81294 -12.0612,-31.6361 -24.6048,-50.12762 -24.6048,-36.09189 -73.5732,-81.54093 -167.8917,-93.57156 -94.801,-12.03064 -152.2122,20.71941 -183.5713,50.35041 -13.7497,12.92179 -23.8811,26.51194 -30.8766,37.8742 -5.7894,-7.35205 -12.7849,-15.37247 -21.4689,-23.1701 -25.5698,-23.39289 -70.1961,-50.79599 -137.2563,-48.5681 -53.0692,1.78232 -101.5552,24.28405 -139.9098,64.83173 -14.9559,15.81805 -25.8109,31.6361 -32.5652,43.22115 -11.3375,-6.2381 -27.7407,-14.03573 -47.27983,-19.82826 -51.8631,-15.59526 -102.27886,-10.91668 -145.94035,13.81295 -44.86761,25.39799 -67.06019,71.06983 -64.40673,132.33692 1.20612,27.4031 7.23671,52.13273 11.57874,67.05962 -9.89017,4.233 -22.91625,11.13948 -35.70111,21.165 -23.63993,18.71431 -51.8631,53.02389 -50.89821,109.16683 0.72368,44.55788 21.22769,82.65488 59.09981,110.50356 15.92077,11.58505 31.84153,19.15989 42.6966,23.39289 -1.44734,13.14458 -3.13591,34.53236 -1.20612,57.70246 4.34203,52.57831 24.60482,89.11578 58.85859,105.37941 57.89369,27.62589 143.28691,12.699 182.36511,3.56463 2.6535,14.92689 7.7192,36.31468 18.0918,58.81641 25.3285,54.8062 68.7488,88.22465 125.6776,96.46785 55.2402,8.0204 111.6865,-4.6786 163.3084,-36.76028 15.9208,-10.02552 28.9468,-20.27384 39.0782,-28.96263 4.5833,11.13948 11.5788,24.28405 21.7102,36.98305 20.9864,26.06636 59.8235,55.02896 128.0898,55.02896 9.1665,0 19.0567,-0.4455 29.188,-1.5595 77.9153,-8.466 122.3005,-41.21604 145.6992,-67.05961 10.1314,-11.13948 17.3681,-22.05616 22.4338,-31.41332 10.1314,7.57485 23.8812,16.04084 40.7668,22.27895 35.9424,12.92179 94.0773,18.04594 166.6856,-30.96773 43.4203,-29.40821 65.3716,-72.85215 63.2006,-125.65325 -0.7237,-17.60036 -4.1008,-33.6412 -7.4779,-45.67183 11.8199,-0.22279 26.0521,-1.55953 41.008,-5.56974 33.7713,-9.13437 77.1916,-34.08678 91.9063,-100.03246 14.4734,-65.72288 -13.0261,-109.16682 -38.3546,-134.11924 z M 1603.529,56.95607 c -4.8245,-0.89116 -9.8901,-1.78232 -14.9559,-2.45069 0.2412,0 0.2412,0 0.4825,0 5.0657,0.44558 9.6489,1.33674 14.4734,2.45069 z"
   style="stroke-width:2.31823" />
	<g
   id="XMLID_1_"
   transform="matrix(2.4122371,0,0,2.2278944,497.75946,-175.63611)">
		<path
   id="XMLID_16_"
   class="st3"
   d="m 618,261.1 c 0,0 28.4,-55.6 -10.1,-94.2 8.2,48.4 -41.4,107.5 -41.4,107.5 0,0 49.5,8.4 23.2,43.8 -19.3,26 -55.7,-2.3 -55.7,-2.3 0,0 34.5,60.5 -3,73.6 -37.5,13.1 -71,-30.1 -71,-30.1 0,0 6.5,75 -36,84.5 -42.5,9.5 -65,-76 -65,-76 0,0 -23,60.5 -72.5,55.5 -49.5,-5 -52,-80 -52,-80 -13.5,21.5 -41,42.5 -72,29.5 -31,-13 3,-83.5 3,-83.5 0,0 -26,10.5 -52.5,0 -15,-5.9 -17,-28.5 -15.9,-47 -10.5,7.6 -22.4,21.7 -22.1,46.1 0.7,43.5 43,55.5 43,55.5 0,0 -9.7,56.5 19.3,71.5 29,14.9 78.5,-1.3 78.5,-1.3 0,0 3.1,63.7 54.5,71.9 51.5,8.1 86.3,-36.9 86.3,-36.9 0,0 6.9,55.2 69.8,47.8 57.9,-6.9 67.8,-50 67.8,-50 0,0 31.3,42 84.4,3.2 39.1,-28.6 17.1,-79.1 17.1,-79.1 0,0 47.9,9.6 58.2,-40.9 C 664.3,279.8 618,261.1 618,261.1 Z" />
		<path
   id="XMLID_17_"
   class="st2"
   d="m 113,289.5 c 26.5,10.5 52.5,0 52.5,0 0,0 -34,70.5 -3,83.5 31,13 58.5,-8 72,-29.5 0,0 2.5,75 52,80 49.5,5 72.5,-55.5 72.5,-55.5 0,0 22.5,85.5 65,76 42.5,-9.5 36,-84.5 36,-84.5 0,0 33.5,43.2 71,30.1 37.5,-13.1 3,-73.6 3,-73.6 0,0 36.3,28.3 55.7,2.3 26.4,-35.5 -23.2,-43.8 -23.2,-43.8 0,0 49.6,-59.1 41.4,-107.5 -3.3,-3.3 -7.2,-6.6 -11.6,-9.6 -47.5,-32.7 -89.3,7.4 -89.3,7.4 0,0 -5.8,-60.4 -76.1,-70 -70.3,-9.6 -87.1,48.2 -87.1,48.2 0,0 -17.6,-42.5 -66.4,-40.7 -48.8,1.8 -69,51.9 -69,51.9 0,0 -39.5,-31.5 -79.1,-7.2 -39.6,24.2 -16.8,87.6 -16.8,87.6 0,0 -7.3,2.1 -15.5,8 -1,18.4 1,41 16,46.9 z" />
		<path
   id="XMLID_5_"
   d="m 415.1,505 c -28.3,0 -44.4,-13 -53.1,-24.7 -4.2,-5.7 -7.1,-11.5 -9,-16.6 -4.1,3.9 -9.6,8.6 -16.2,13 -21.4,14.4 -44.8,20.2 -67.7,16.5 -23.7,-3.7 -41.7,-18.7 -52.1,-43.3 -4.3,-10 -6.4,-19.7 -7.5,-26.4 -16.1,4.1 -51.5,10.8 -75.6,-1.6 -14.2,-7.3 -22.7,-23.7 -24.4,-47.3 -0.8,-10.4 -0.1,-20 0.5,-25.9 -4.6,-1.9 -11.1,-5.3 -17.7,-10.5 -15.7,-12.4 -24.2,-29.6 -24.5,-49.6 -0.4,-25.2 11.3,-40.6 21.1,-49 5.3,-4.6 10.7,-7.6 14.8,-9.5 -1.8,-6.7 -4.3,-17.8 -4.8,-30.1 -1.1,-27.5 8.1,-48 26.7,-59.4 18.1,-11.1 39,-13.2 60.5,-6.2 8.1,2.6 14.8,6.1 19.6,8.9 2.9,-5.2 7.3,-12.2 13.5,-19.4 15.9,-18.2 36,-28.3 58,-29.1 27.8,-1 46.3,11.3 56.9,21.8 3.6,3.6 6.5,7.2 8.9,10.4 3,-5.2 7.1,-11.2 12.8,-17 13,-13.3 36.8,-28 76.1,-22.6 39.1,5.4 59.4,25.8 69.6,42 5.2,8.3 8.3,16.2 10.2,22.5 5,-3.3 11.7,-7.1 19.7,-10 16.6,-6 42,-9.2 69.1,9.4 24.9,17.1 36.9,42.3 34.7,72.7 -1,14.3 -4.9,26.6 -7.7,33.7 4.8,2.8 11.5,7.3 17.7,14 10.6,11.3 21.9,30.8 15.9,59.9 -6.1,29.6 -24.1,40.8 -38.1,44.9 -6.2,1.8 -12.1,2.4 -17,2.5 1.4,5.5 2.8,12.6 3.1,20.5 0.9,23.7 -8.2,43.3 -26.2,56.4 -30.1,22 -54.2,19.7 -69.1,13.9 -7.1,-2.8 -12.7,-6.5 -16.9,-10 -2.1,4.2 -5.1,9.1 -9.3,14.1 -9.7,11.6 -28.1,26.3 -60.4,30.1 -4.2,0.7 -8.3,1 -12.1,1 z m -53.5,-74.2 2.2,17.4 c 0.3,1.9 8.6,54.3 63.3,47.8 21.8,-2.6 35.1,-16.8 46.8,-30.4 8.7,-10.2 10.9,-20.8 11,-20.9 l 3.5,-13.7 c 0.2,-2.7 3.8,-3.4 5.1,-1 l 8.9,12.8 c 1.1,1.4 30.8,39.5 77.2,5.6 14,-10.3 15.5,-29.1 14.9,-47.8 C 594,385.9 589,374.1 589,374 l -3,-6.5 c -1.5,-3.4 1.7,-6.9 5.2,-5.7 l 5.9,2.1 c 0.1,0 10.8,2 22.2,-1.5 14.5,-4.5 28.7,-11.3 32.3,-29.2 3.8,-18.5 -5.2,-38.7 -17.2,-51.4 -8.9,-9.5 -19.1,-13.8 -19.2,-13.8 l -7.4,-3 3.6,-7.1 c 0.1,-0.1 7.9,-15.7 9.1,-35.2 1.6,-25.1 -3.8,-51.1 -24.3,-65.2 -17.6,-12.1 -40.6,-8.7 -60,-1.7 -14.8,5.4 -24.2,14.3 -24.3,14.4 l -10.9,10.5 -1.4,-15 c 0,-0.1 -1.5,-14 -10.9,-28.7 -12.4,-19.4 -28.5,-37.9 -55.2,-41.6 -26.5,-3.6 -48.9,7.7 -64.4,23.2 -11.8,11.8 -15.2,27.1 -15.3,27.3 l -6.5,20.6 c -0.8,2.4 -4.2,2.6 -5.1,0.2 l -7.3,-18.5 c 0,-0.1 -4.9,-12.3 -11.7,-21.2 -10.5,-13.7 -28.1,-22.6 -46,-22 -43.5,1.6 -59.7,52.6 -59.9,53.1 l -2.7,9.5 c -0.8,2.6 -4.1,3.5 -6,1.6 l -5.4,-5.2 c -0.1,-0.1 -12.4,-10.8 -22.2,-15.5 -16.5,-7.8 -37,-9.2 -51.4,-0.4 -34.1,20.9 -9.3,82.2 -9.1,82.8 l 2.6,6.8 c 0.9,1.3 0.1,3 -1.5,3.2 l -7,1.6 c -1.3,0.4 -39.1,10.2 -38.6,47.2 0.2,15.5 12.8,27.5 24.8,37.2 9.4,7.6 18.9,8.4 19,8.5 l 7.1,0.8 c 2.2,0.3 3.6,2.6 2.8,4.7 l -2.4,5.8 c 0,0 0,0 0,0 v 0 c -2.4,14.3 -9.9,56.5 9.9,66.7 25.9,13.3 75.7,-5.7 76.1,-5.8 l 9.1,-3 0.5,9.6 c 0,0.1 0.8,15.2 7.5,30.7 8.5,19.8 21.6,35.5 40.2,38.5 19.3,3.1 39,-5.9 57.4,-18.2 14.1,-9.4 22.5,-20.1 22.5,-20.2 z" />
	</g>
	<g
   id="XMLID_39_"
   transform="matrix(2.4122371,0,0,2.2278944,497.75946,-175.63611)">
		<path
   id="XMLID_40_"
   d="m 315.7,282.1 c 2.6,-10.3 5.3,-20.6 8.2,-30.7 v 0 c 2.8,-9.8 5.5,-19.6 8.3,-29.1 2.7,-9.1 5.3,-17.5 8,-24.9 l 2.3,-6.4 -6.6,1.4 c -4.2,0.9 -9,1.7 -14.5,2.4 -5.4,0.7 -10.8,1.4 -16.1,2.1 -5.9,0.7 -12,1.5 -18,2.4 l -2.6,0.4 -21.3,96.5 c 0.5,-6.2 1.1,-12.7 1.7,-19.4 0.7,-8.5 1.5,-16.9 2.1,-25 0.7,-8.4 1.4,-16.2 2.1,-23.3 0.7,-7.3 1.3,-13.2 1.7,-18.2 0.5,-6 0.9,-8.4 1.1,-9.4 l 1.3,-5.8 -5.8,1.3 c -3.1,0.7 -6.2,1.3 -9,1.7 -2.9,0.4 -6,0.8 -9.2,1.2 -3.1,0.3 -6.3,0.5 -9.4,0.5 h -5.4 l -0.7,2.9 c -0.9,3.5 -2.1,7.9 -3.6,13 -1.5,5.2 -3.1,10.9 -4.8,16.9 -1.8,6.4 -3.6,12.7 -5.4,18.9 -1.7,6 -4,13.9 -7.4,25.5 -1,3.6 -2.2,7.5 -3.4,11.8 1.3,-8 2.4,-15 3.4,-20.9 2.1,-12.7 3.7,-22.2 4.7,-29.2 1.1,-7.5 2.1,-13.8 2.9,-19 1,-6.1 1.6,-10.4 2.1,-13.7 0.8,-5.5 0.8,-5.7 0.8,-6.1 v -4.1 l -4.1,0.3 c -7.4,0.5 -15,1.5 -22.5,2.9 -7.2,1.3 -15,2.1 -23.2,2.5 l -3.3,0.1 -21.1,198.7 63.2,-11.2 19.7,-72.1 -9.1,79.6 68.1,-11.5 0.6,-2.5 c 5.4,-24.1 10.9,-47.8 16.6,-70.4 2.5,-9.7 5.1,-19.8 7.6,-30.1 z" />
		<path
   id="XMLID_41_"
   d="m 607.4,181.6 c -4.2,0.9 -9,1.7 -14.5,2.4 v 0 c -5.4,0.7 -10.8,1.4 -16.1,2.1 -5.9,0.7 -12,1.5 -18,2.4 l -2.6,0.4 -21.3,96.5 c 0.5,-6.1 1.1,-12.7 1.7,-19.4 0.7,-8.4 1.5,-16.8 2.1,-25 0.7,-8.3 1.4,-16.2 2.1,-23.3 0.7,-7.3 1.3,-13.2 1.7,-18.2 0.5,-6 0.9,-8.4 1.1,-9.4 l 1.3,-5.8 -5.8,1.3 c -3.1,0.7 -6.2,1.3 -9,1.7 -2.9,0.4 -6,0.8 -9.2,1.2 -3.1,0.3 -6.3,0.5 -9.4,0.5 h -5.4 l -0.7,2.9 c -0.9,3.5 -2.1,7.9 -3.6,13 -1.5,5.2 -3.1,10.9 -4.8,16.9 -1.8,6.4 -3.6,12.7 -5.4,18.9 -1.7,6 -4.1,14.1 -7.4,25.5 -1,3.6 -2.2,7.5 -3.4,11.8 1.3,-8 2.4,-15 3.4,-20.9 2.1,-12.7 3.6,-22.2 4.7,-29.2 1.1,-7.6 2.1,-13.8 2.9,-19 1,-6.1 1.7,-10.5 2.1,-13.7 0.8,-5.5 0.8,-5.7 0.8,-6.1 V 185 l -4.1,0.3 c -7.4,0.5 -15,1.5 -22.5,2.9 -7.2,1.3 -15,2.1 -23.2,2.5 l -3.3,0.1 -21.3,198.8 63.2,-11.2 19.7,-72.1 -9.1,79.6 68.1,-11.5 0.6,-2.5 c 5.3,-24.1 10.9,-47.8 16.6,-70.4 2.5,-9.7 5.1,-19.8 7.7,-30.1 2.6,-10.3 5.3,-20.6 8.2,-30.8 2.8,-9.8 5.5,-19.6 8.3,-29.1 2.7,-9.1 5.3,-17.5 8,-24.9 l 2.3,-6.4 z" />
		<path
   id="XMLID_44_"
   d="m 428,276.5 c 0,-5.6 -0.5,-11.3 -1.6,-16.9 -1.1,-5.8 -3,-11 -5.5,-15.7 v 0 c -2.7,-4.8 -6.5,-8.8 -11.3,-11.8 -4.9,-3.1 -11,-4.6 -18.3,-4.6 -8.1,0 -16.1,2 -23.6,5.9 -7.3,3.8 -14.2,9 -20.6,15.4 -6.3,6.4 -12.1,13.7 -17.3,21.9 -5.2,8.2 -9.6,16.9 -13.2,26 -3.6,9 -6.4,18.2 -8.5,27.4 -2.1,9.3 -3.2,18.2 -3.2,26.6 0,8.2 0.9,15.4 2.7,21.3 1.8,6.1 4.4,11.1 7.6,15.1 3.3,4 7.2,7.1 11.6,9.1 4.4,2 9.4,3.1 14.7,3.1 6.1,0 12.7,-1.4 19.3,-4.1 6.6,-2.7 13.1,-6.6 19.5,-11.7 6.3,-5 12.4,-11.2 18.2,-18.3 5.8,-7.1 10.9,-15.3 15.2,-24.3 4.3,-9 7.8,-19 10.4,-29.8 2.6,-10.8 3.9,-22.4 3.9,-34.6 z m -80.5,75.8 c -0.8,-1 -1.4,-2.1 -1.8,-3.5 -0.4,-1.3 -0.7,-2.6 -0.7,-3.8 0,-3.3 0.4,-7.3 1,-11.9 0.7,-4.6 1.9,-9.3 3.5,-14.1 1.6,-4.8 3.6,-9.7 5.8,-14.4 2.2,-4.6 4.8,-8.7 7.7,-12.3 2.8,-3.5 6.1,-6.3 9.6,-8.4 3.4,-2 6.9,-3 10.9,-3 1.4,0 2.4,0.3 3,0.9 0.9,0.8 1.6,1.8 2,3 0.5,1.4 0.9,3 1.1,4.7 0.2,1.9 0.3,3.7 0.3,5.3 0,5.8 -0.9,12.3 -2.6,19.4 -1.7,7.1 -4.2,13.9 -7.4,20.1 -3.1,6.1 -7.1,11.3 -11.8,15.5 -4.4,3.9 -9.3,5.8 -15,5.8 -1,0 -2,-0.3 -2.9,-0.9 -1,-0.6 -2,-1.4 -2.7,-2.4 z" />
	</g>
	<g
   id="XMLID_8_"
   transform="matrix(2.4122371,0,0,2.2278944,497.75946,-175.63611)">
		<text
   id="XMLID_1474_"
   transform="translate(132.6169,387.7694)"
   class="st4 st5 st6">W</text>
	</g>
	<g
   id="XMLID_11_"
   transform="matrix(2.4122371,0,0,2.2278944,497.75946,-175.63611)">
		<text
   id="XMLID_1475_"
   transform="translate(404.1613,377.0092)"
   class="st4 st5 st6">W</text>
	</g>
	<g
   id="XMLID_10_"
   transform="matrix(2.4122371,0,0,2.2278944,497.75946,-175.63611)">
		<text
   id="XMLID_1476_"
   transform="translate(292.1867,387.7694)"
   class="st4 st5 st7">o</text>
	</g>
	<g
   id="XMLID_9_"
   transform="matrix(1.3347176,0,0,1.5140139,1001.6561,1667.2549)">
		<path
   id="XMLID_28_"
   class="st8"
   d="m 242.1,729.4 c -13.2,-28.4 -56.3,-19.2 -56.3,-19.2 0,0 -10.5,-49.2 -41.9,-37.1 -31.4,12.1 -15.6,60.8 -15.6,60.8 0,0 -8.5,-7.9 -40.4,3 -15.6,5.4 -25.8,15.7 -32.2,24.8 -0.3,1.1 -0.6,2.1 -0.9,3.2 -8.6,36 43,87.8 86.8,48.8 0,0 12.8,39 45.6,24.4 32.8,-14.6 18.5,-50.6 18.5,-50.6 0,0 12,1.1 24.1,-4.6 12.7,-12.2 22.1,-32.4 12.3,-53.5 z" />
		<path
   id="XMLID_32_"
   d="m 190.9,696.6 c 0,0 -8.5,-41.4 -46.2,-31.7 -37.7,9.8 -28.5,54.6 -28.5,54.6 0,0 -47.2,-4.7 -60.5,42.2 6.4,-9.1 16.5,-19.8 32.2,-24.8 29.5,-9.5 43.4,8.3 43.4,8.3 0,0 -13.8,-62.3 9.4,-68.4 38.9,-10.2 42.8,40.9 42.8,40.9 0,0 42.8,-5.5 53.2,16.8 7.3,15.7 5.7,36.2 -6.9,48.5 12,-5.6 24.1,-17.8 25.4,-44.2 2.1,-43.7 -32.1,-54.4 -64.3,-42.2 z" />
		<g
   id="XMLID_13_">
			<path
   id="XMLID_19_"
   d="m 173.2,844.7 c -4.1,0 -8.1,-0.8 -11.8,-2.5 -11.5,-5.1 -18.1,-16.8 -21,-23.1 -18.2,14.3 -39.5,15.8 -59.1,4 C 60,810.3 47,784.4 51.8,764.3 c 6.5,-27.4 23.8,-39 37.2,-43.9 9.7,-3.5 18.6,-4.1 23.5,-4.2 -0.5,-4.5 -0.9,-12.4 0.7,-20.9 3.4,-17.6 14,-29.1 30.7,-33.5 11.5,-3 21.6,-1.8 30.1,3.5 11.8,7.4 17.1,20.7 19.1,27.1 18.6,-6.1 36.6,-4.6 48.8,4.3 8.2,6 17.7,18.1 16.6,42.2 -0.8,17.7 -6.5,31.2 -16.8,40.2 -11.1,9.7 -24.6,11.5 -31.6,11.7 2.8,10.7 6.5,37.8 -21.6,50.3 -5.3,2.4 -10.4,3.6 -15.3,3.6 z m -30,-36.6 1.5,4.6 c 0.1,0.2 5.9,17.6 19.2,23.5 6.5,2.9 13.9,2.5 22,-1.1 12.4,-5.5 19,-15 19.7,-28 0.5,-10 -2.8,-18.4 -2.8,-18.5 l -1.9,-4.9 5.2,0.5 c 0.2,0 18.2,1.5 31.5,-10.1 8.9,-7.8 13.8,-19.8 14.6,-35.6 0.8,-16.8 -4.1,-29.5 -14,-36.7 -11.2,-8.1 -28.4,-9 -46.1,-2.3 l -3.5,1.3 -0.8,-3.7 c 0,-0.2 -3.9,-18.2 -17.2,-26.5 -7,-4.3 -15.4,-5.3 -25.1,-2.8 -34.2,8.9 -26.5,49.2 -26.1,50.9 l 0.9,4.3 -4.3,-0.4 c -0.1,0 -12,-1.1 -25,3.7 -17.2,6.4 -28.3,19.6 -33,39.3 -4.2,17.6 7.5,40.4 26.6,51.9 18.2,11 38.3,8.7 55,-6.2 z" />
		</g>
		<path
   id="XMLID_4_"
   class="st2"
   d="m 64.2,769.2 c 0,0 1.4,35.9 32.1,42.5 C 127,818.3 138,801 138,801 l -11.7,-9.8 c 0,0 -33.2,19.8 -62.1,-22 z" />
	</g>
	<path
   id="XMLID_107_"
   class="st1"
   d="m 1605.7492,2613.0594 c -7.7413,-16.1999 -24.5588,-27.4036 -45.5138,-30.4317 1.0677,-8.0242 2.1355,-25.5868 -6.0063,-39.9699 -5.7392,-10.2953 -15.0823,-16.957 -27.6286,-19.8336 -18.2856,-4.0878 -33.9018,3.1794 -45.3804,20.742 -5.6058,8.4785 -8.8091,17.4111 -10.4108,22.7102 -4.805,-2.5738 -13.7476,-6.6617 -24.8258,-7.8729 -15.2157,-1.6654 -37.5055,1.9682 -56.592,28.7663 -14.0145,19.6822 -13.4806,55.1101 1.3347,80.5455 13.6142,23.3158 34.9696,32.8541 59.395,26.7981 -0.1335,8.4784 0.8008,24.8298 9.6099,36.4877 2.9364,3.785 6.4067,6.8131 10.4108,9.0841 4.805,2.5738 10.2774,3.9364 16.5505,4.2392 33.101,1.0598 42.0436,-30.8859 44.3127,-44.0578 6.9405,3.4823 20.8216,8.6299 36.1708,3.7851 14.2815,-4.5421 26.027,-16.5028 35.1031,-35.428 12.2794,-26.1924 8.6756,-44.6634 3.4702,-55.5643 z m -168.4413,-36.7905 c -12.8133,-1.6654 -24.1584,1.0598 -33.368,5.299 0,0 0.1335,-0.1514 0.1335,-0.1514 9.2096,-4.2392 20.5547,-7.1158 33.2345,-5.1476 z"
   style="stroke-width:1.42154" />
	<g
   id="XMLID_55_"
   transform="matrix(1.3347176,0,0,1.5140139,1001.6561,1667.2549)">
		<path
   id="XMLID_106_"
   class="st8"
   d="m 435.1,636.8 c 0.3,-25.3 -34.3,-33.6 -34.3,-33.6 0,0 9.5,-39.5 -17.6,-41.6 -27.1,-2.1 -32.5,38.9 -32.5,38.9 0,0 -3.4,-8.7 -30.5,-11.9 -13.2,-1.5 -24.3,2.4 -32.1,6.9 -0.6,0.7 -1.2,1.3 -1.8,2.1 -18.8,23.2 0.8,79 46.3,65.8 0,0 -4.3,32.9 24.7,33.7 29,0.8 31.2,-30.4 31.2,-30.4 0,0 8.3,5 19.2,5.1 13.3,-4.7 27.2,-16.2 27.4,-35 z" />
		<path
   id="XMLID_78_"
   d="m 409.2,595.1 c 0,0 8.2,-33.2 -22.6,-39.2 -30.9,-6 -39.8,29.9 -39.8,29.9 0,0 -32.7,-19.9 -58.8,9.7 7.8,-4.4 18.9,-8.7 32.1,-6.9 24.8,3.4 28.8,21.2 28.8,21.2 0,0 11.6,-50.3 30.7,-46.6 31.9,6.1 17,44.7 17,44.7 0,0 33.1,10.9 32.9,30.8 -0.2,14 -8.5,28.4 -21.9,32.9 10.7,0.1 23.8,-4.6 33.9,-23.4 16.6,-31 -4.6,-50.8 -32.3,-53.1 z" />
		<g
   id="XMLID_61_">
			<path
   id="XMLID_64_"
   d="m 344.7,696.9 c -3,-1.4 -5.6,-3.4 -7.8,-6 -6.6,-7.8 -7.4,-18.5 -7.2,-24.1 -18.3,4.1 -34.3,-2.3 -44.5,-17.7 -11.1,-16.8 -11.5,-40.2 -1,-53.2 14.3,-17.7 31,-20.1 42.4,-19 8.3,0.8 15,3.5 18.6,5.2 1.2,-3.5 3.6,-9.4 7.8,-15 8.6,-11.6 20.4,-16.3 34,-13.7 9.4,1.8 16.4,6.2 20.7,13.1 6,9.5 5.3,21.1 4.5,26.4 15.7,2 28.3,9.4 34.1,20.1 3.9,7.2 6.6,19.4 -2.6,36.5 -6.8,12.6 -15.6,20.5 -26.3,23.4 -11.5,3.2 -21.9,-0.2 -27.1,-2.5 -1.7,8.7 -8.4,29.8 -33.2,29.1 -4.7,0 -8.8,-0.9 -12.4,-2.6 z m -9.1,-37.1 -0.5,3.9 c 0,0.1 -1.8,14.9 5.8,23.9 3.7,4.4 9.3,6.7 16.4,6.9 11,0.3 19.1,-4.3 24.1,-13.6 3.8,-7.1 4.4,-14.4 4.4,-14.5 l 0.3,-4.2 3.6,2.2 c 0.1,0.1 12.7,7.4 26.5,3.6 9.2,-2.6 17,-9.6 23,-20.9 6.4,-12 7.3,-22.9 2.6,-31.6 -5.3,-9.8 -17.6,-16.5 -32.8,-17.7 l -3,-0.3 0.7,-2.9 c 0,-0.1 3.5,-14.6 -3.3,-25.3 -3.6,-5.6 -9.4,-9.2 -17.3,-10.8 -28.1,-5.5 -36.4,26.6 -36.8,28 l -0.9,3.4 -3,-1.8 c -0.1,0 -8.3,-5 -19.5,-6 -14.7,-1.3 -27.4,4.4 -37.7,17.1 -9.2,11.4 -8.6,32 1.3,47.1 9.5,14.4 24.9,19.7 42.3,14.7 z" />
		</g>
		<path
   id="XMLID_56_"
   class="st2"
   d="m 291.5,603.8 c 0,0 -11.5,26.7 8.6,42.2 20.1,15.5 34.1,6.7 34.1,6.7 l -5.1,-11.2 c 0.1,0 -31.1,2.9 -37.6,-37.7 z" />
	</g>
	<polygon
   id="XMLID_15_"
   class="st9"
   points="152.2,900.8 264.5,982.3 277,880.5 353.9,981.2 402.5,850.5 440,983.2 514.4,923.9 506.2,1025.2 643.7,1009.5 547.6,1100.7 657.1,1147.8 545,1180.2 610.6,1268.9 485,1233.1 452.5,1327 392.3,1250.4 332.2,1350.1 306,1235 216.1,1307.5 232.3,1194 114,1250.7 167.5,1145.6 37.8,1114.2 160.3,1073.8 82.9,992.8 192.9,1026.1 "
   transform="matrix(1.3347176,0,0,1.5140139,1001.6561,1667.2549)" />
	<polygon
   id="XMLID_34_"
   class="st10"
   points="259.1,1002.6 313.9,1042.4 320,992.7 357.6,1041.9 381.3,978.1 399.6,1042.9 435.9,1013.9 431.9,1063.4 499,1055.7 452.1,1100.2 505.6,1123.2 450.9,1139 482.9,1182.3 421.5,1164.8 405.7,1210.7 376.3,1173.3 347,1222 334.2,1165.8 290.3,1201.2 298.2,1145.8 240.4,1173.4 266.5,1122.1 203.2,1106.8 263,1087.1 225.2,1047.5 279,1063.8 "
   transform="matrix(1.3347176,0,0,1.5140139,1001.6561,1667.2549)" />
	
	<path
   id="XMLID_x5F_25_x5F_"
   class="st11"
   d="M 1175.9702,3514.3519 1911.8,3364.1618"
   style="stroke-width:1.42154" />
	<text
   id="XMLID_33_" />
	
	
	
	
	<polygon
   id="XMLID_73_"
   class="st12"
   points="1238.8,852.2 1116.2,771.2 1090.2,665.2 1171.5,729.7 1242.6,655.7 1250.9,744.1 1345.7,761.2 "
   transform="matrix(1.9151064,0,0,1.9532302,-420.87588,211.08321)" />
	<path
   id="XMLID_74_"
   class="st13"
   d="m 1772.1124,1768.9797 c -0.766,-2.9299 -48.8352,-145.711 -48.8352,-145.711 l 81.392,83.9889 103.7988,-92.9738 9.384,125.3974 120.2687,-11.9147 -128.6952,119.733 z"
   style="stroke-width:1.93407" />
	<g
   id="XMLID_63_"
   transform="matrix(1.9151064,0,0,1.9532302,-420.87588,211.08321)">
		<g
   id="XMLID_36_">
			<path
   id="XMLID_68_"
   d="m 1063.8,772.8 -16.3,6.1 8.1,-3 -8.1,3.1 c -0.1,-0.3 -9.8,-25.2 -30.2,-24.6 -6.9,0.2 -13.8,1.8 -20.5,3.3 -16.9,3.9 -35.8,8.2 -53.8,-11.3 -2,-2.1 -1.7,-5.5 0.6,-7.3 l 5.9,-4.6 c 2,-1.6 4.9,-1.4 6.6,0.5 10.9,11.7 21,9.4 36.8,5.7 7.1,-1.6 15.2,-3.5 23.9,-3.8 32.9,-1 46.4,34.4 47,35.9 z" />
		</g>
		<path
   id="XMLID_66_"
   d="m 1011.1,845.4 -7.8,-11 c -8.1,-11.4 -7.2,-26.9 2.2,-37.3 14.1,-15.6 39,-37.6 78.1,-54 12.9,-5.4 27.9,-1.1 36,10.3 l 17.2,24.3 z" />
		<path
   id="XMLID_69_"
   d="m 1210.1,785.4 c -2.5,-1.3 -80.7,-42.6 -147.8,9.6 -62,48.2 -74.2,127 -28.6,189.2 44.8,49.2 120.2,58.4 175.9,19 60.2,-42.6 74.5,-126 31.9,-186.3 -8.9,-12.4 -19.5,-23 -31.4,-31.5 z" />
		<path
   id="XMLID_70_"
   class="st14"
   d="m 1062.3,795 c 67.1,-52.2 145.3,-11 147.8,-9.6 -45,-32.1 -107.2,-34 -154.9,-0.3 -60.2,42.6 -74.5,126 -31.9,186.3 3.2,4.6 6.7,8.9 10.4,12.9 C 988,922 1000.3,843.2 1062.3,795 Z" />
		<path
   id="XMLID_67_"
   class="st2"
   d="m 1018.7,912.3 c 0,0 33.1,109.8 121.8,96 55.5,-8.7 83.2,-44.6 96.1,-70.2 6.4,-12.8 -2.2,-28 -16.4,-29.3 v 0 c -7.8,-0.7 -15.3,3.2 -19.3,9.9 -10.3,17.4 -34.3,49.5 -73.9,54.5 -54.7,6.8 -108.3,-60.9 -108.3,-60.9 z" />
	</g>
	<g
   id="XMLID_103_"
   transform="matrix(1.6744699,0,0,1.6198546,-1089.3728,1654.7501)">
		<path
   id="XMLID_54_"
   class="st15"
   d="m 825.5,127.8 c 0,0 0.1,-0.1 0,0 4.2,5 66.3,78 206.3,67.4 145.1,-11 177.9,-84 177.9,-84 0,0 -52.3,109.3 12.2,173.8 75.4,75.4 160.5,80.1 160.5,80.1 2.6,-0.8 -92.8,16.5 -128,83.4 -33.9,64.4 -32.8,151.3 -32.5,163.6 0,0.3 -0.4,0.4 -0.6,0.2 -5.4,-10.8 -46.1,-84.3 -145.9,-86.4 -107.7,-2.2 -156.6,85.7 -156.6,85.7 0,0 40.2,-98.5 -44.4,-166.8 C 785.8,373.3 706.1,394 706.1,394 c 0,0 131.7,-41.7 146.9,-109.1 16.3,-72.5 -24.5,-150.6 -27.5,-157.1 z" />
	</g>
	<g
   id="XMLID_104_"
   transform="matrix(1.6744699,0,0,1.6198546,-1089.3728,1654.7501)">
		<g
   id="XMLID_134_">
			<path
   id="XMLID_136_"
   class="st13"
   d="m 906.2,201.4 c 0,-0.1 0,-0.1 0,0 2.8,3.3 43.7,51.5 136.1,44.5 95.8,-7.3 117.4,-55.5 117.4,-55.5 0,0 -34.5,72.1 8.1,114.6 49.8,49.8 105.9,52.8 105.9,52.8 1.7,-0.5 -61.2,10.9 -84.5,55 -22.4,42.5 -21.7,99.9 -21.4,108 0,0.2 -0.3,0.3 -0.4,0.1 -3.6,-7.1 -30.4,-55.6 -96.3,-57 -71.1,-1.5 -103.3,56.6 -103.3,56.6 0,0 26.5,-65 -29.3,-110 -58.4,-47.2 -111,-33.5 -111,-33.5 0,0 86.9,-27.5 96.9,-72 10.7,-47.8 -16.2,-99.4 -18.2,-103.6 z" />
		</g>
	</g>
	<g
   id="XMLID_116_"
   transform="matrix(1.6744699,0,0,1.6198546,-1089.3728,1654.7501)">
		<g
   id="XMLID_144_">
			<path
   id="XMLID_145_"
   class="st10"
   d="m 1008.1,310.3 c 0,0 0,0 0,0 0.8,1 12.8,15.1 40,13.1 28.1,-2.1 34.5,-16.3 34.5,-16.3 0,0 -10.1,21.2 2.4,33.7 14.6,14.6 31.1,15.5 31.1,15.5 0.5,-0.1 -18,3.2 -24.8,16.2 -6.6,12.5 -6.4,29.3 -6.3,31.7 0,0.1 -0.1,0.1 -0.1,0 -1.1,-2.1 -8.9,-16.4 -28.3,-16.7 -20.9,-0.4 -30.4,16.6 -30.4,16.6 0,0 7.8,-19.1 -8.6,-32.3 C 1000.4,357.9 985,362 985,362 c 0,0 25.5,-8.1 28.5,-21.2 3.1,-14.1 -4.8,-29.2 -5.4,-30.5 z" />
		</g>
	</g>
	<g
   id="XMLID_102_"
   transform="matrix(1.6744699,0,0,1.6198546,-1086.0238,1654.7501)">
		<path
   id="XMLID_108_"
   d="m 1221.5,622.3 c -3.8,0 -7.4,-2.1 -9.2,-5.7 -2,-3.9 -12.9,-24.3 -35.1,-43.4 -28.1,-24.1 -62.4,-36.7 -102.1,-37.5 -41.9,-0.9 -79.4,12.3 -111.4,39.2 -24.2,20.3 -36.1,41.2 -36.2,41.4 l -18,-8.6 c 0.1,-0.2 9.4,-23.7 8.8,-54.6 -0.8,-40.6 -17.7,-74.4 -50.2,-100.7 -43.5,-35.1 -84.5,-46.5 -111.2,-49.9 -29,-3.7 -48.1,1 -48.3,1.1 l -5.5,-19.2 c 0.3,-0.1 32.7,-10.4 66.3,-28.7 42.8,-23.2 68.3,-48.5 73.9,-73.1 9.3,-41.4 -0.1,-95.6 -25.9,-148.8 -0.4,-0.8 -0.7,-1.5 -0.9,-1.9 l -3.7,-8 15,-9.5 5.7,6.8 c 2.5,3 62,74.1 197.8,63.8 71.6,-5.4 113.9,-26.5 136.8,-43.2 23.6,-17.2 31.9,-33.5 32.6,-34.9 0.1,-0.1 0.1,-0.2 0.1,-0.3 l 18.1,8.4 c 0,0.1 -0.1,0.2 -0.2,0.5 -1.2,2.7 -12.7,28.2 -17.2,60.1 -6,43.4 3.2,77.8 27.5,102.1 37.4,37.4 77.2,56.3 104,65.7 28.6,10 48.9,11.4 50,11.5 0.9,0 1.4,0.1 1.8,0.2 l 7.5,1.7 0.5,15.4 -9.1,2.7 h -0.6 c -8.8,1.8 -89.3,20.2 -119.7,78 -33,62.6 -31.6,149 -31.3,158.7 0.1,4.8 -3.1,9.1 -7.8,10.3 -1.1,0.3 -1.9,0.4 -2.8,0.4 z M 1071.4,515.7 c 1.4,0 2.7,0 4.1,0 44.4,0.9 83,15.1 114.7,42.3 9,7.7 16.3,15.6 22.2,22.7 1.9,-35.2 8.9,-91.2 33.1,-137.1 15.2,-28.9 43.4,-53.4 81.5,-70.9 4.8,-2.2 9.4,-4.1 13.8,-5.8 -4.3,-1.2 -8.9,-2.7 -13.6,-4.3 -29,-10 -72,-30.4 -112.3,-70.7 -28.7,-28.7 -40.1,-70 -33.1,-119.5 0.9,-6.4 2.1,-12.5 3.3,-18.3 -27.2,21.5 -74.2,45.1 -152.5,51 -60.4,4.6 -114.1,-5.2 -159.5,-28.9 -8.3,-4.4 -15.7,-8.8 -22,-13.2 12.1,34.8 21.6,80.2 11.7,124 -9.8,43.6 -61.6,76.3 -102.5,95.8 29.6,3.9 73.9,16.5 120.4,54.1 46.7,37.7 57.2,84.2 57.7,116.6 0.1,6.4 -0.2,12.5 -0.7,18.2 3.8,-3.8 8,-7.7 12.6,-11.6 24.1,-20.3 64.5,-44.4 121.1,-44.4 z" />
	</g>
	<path
   id="XMLID_171_"
   d="m 1103.0107,2094.2167 c -7.2002,1.2959 -13.8981,2.4298 -19.9262,3.2397 v 0 c -6.028,0.9719 -12.0561,1.7818 -18.0842,2.7537 -5.6932,0.81 -11.5539,1.7819 -17.7494,2.5918 -5.8607,0.8099 -12.0562,1.4579 -18.5866,1.9438 l -4.3536,0.324 -1.842,3.7257 c -2.6791,5.5075 -5.6932,12.1489 -8.8747,19.4382 -3.1814,7.2894 -6.3629,14.7407 -9.7119,22.84 -3.3489,7.9373 -6.69795,16.1985 -10.04685,24.7838 -3.1815,8.4232 -7.3677,19.1142 -12.5585,32.397 -1.0047,2.4298 -2.0094,5.1836 -3.0141,7.9373 0.1675,-1.2959 0.3349,-2.4297 0.5024,-3.7256 1.8419,-12.9589 3.5164,-23.6499 4.8559,-32.0732 1.3396,-8.4232 2.6792,-16.5225 3.8513,-24.4598 1.1721,-7.7753 2.3443,-15.3886 3.349,-22.6779 1.0046,-7.1274 1.8419,-13.6068 2.6791,-19.4383 l 1.3396,-9.0712 -9.377,0.81 c -15.5726,1.2959 -30.1405,2.7537 -43.2014,4.3736 -12.8934,1.4578 -26.7915,2.2678 -41.3594,2.2678 h -5.8606 l -1.507,5.5075 c -3.1815,11.8249 -6.8654,24.9457 -11.0515,39.0385 -4.1862,14.2547 -8.7073,28.9954 -13.5633,43.898 -3.1814,10.2051 -6.5304,20.4102 -9.8793,30.7773 2.5117,-14.7407 3.8513,-30.1293 3.8513,-46.0039 0,-10.0431 -1.0047,-20.2482 -3.0141,-30.4533 -2.0094,-10.367 -5.5257,-19.9242 -10.3817,-28.3474 -5.0234,-8.7472 -12.2236,-16.0366 -21.2658,-21.3821 -9.2096,-5.5075 -20.7634,-8.4232 -34.1592,-8.4232 -15.2377,0 -29.973,3.5636 -44.0386,10.691 -13.5632,6.8034 -26.4566,16.1985 -38.3453,27.8615 -11.7213,11.501 -22.6054,24.7838 -32.3173,39.5244 -6.363,9.7192 -12.2236,19.9243 -17.247,30.2913 0.5023,-6.4794 0.6698,-13.1208 0.6698,-19.7622 0,-10.0431 -1.0047,-20.2482 -3.0141,-30.4533 -2.0093,-10.367 -5.5257,-19.9242 -10.3817,-28.3474 -5.0234,-8.7472 -12.2236,-16.0366 -21.2658,-21.3821 -9.2095,-5.5075 -20.7634,-8.4232 -34.1591,-8.4232 -15.2377,0 -29.9731,3.5636 -44.0386,10.691 -13.5632,6.8034 -26.4566,16.1985 -38.3454,27.8615 -11.7213,11.501 -22.6053,24.7838 -32.3172,39.5244 -9.712,14.7407 -17.9169,30.4533 -24.6147,46.8138 -6.363,15.7126 -11.5539,31.7492 -15.4052,47.6238 -1.8419,-4.2117 -3.8512,-8.0993 -6.3629,-11.501 v 0 c -3.5164,-5.0216 -7.5352,-9.3952 -11.7213,-13.1208 -0.5024,-0.486 -1.0047,-0.81 -1.5071,-1.2959 3.6839,-2.1058 7.2003,-4.3736 10.7166,-7.1274 7.3677,-5.5075 13.8981,-12.1489 19.5913,-19.7622 5.6932,-7.6133 10.3818,-16.0366 13.8981,-25.2697 3.6839,-9.3952 5.5258,-19.6003 5.5258,-30.4533 0,-11.6629 -2.5117,-21.706 -7.3677,-29.6433 -4.6885,-7.6133 -10.7166,-13.9308 -17.7494,-18.7903 -7.0327,-4.6976 -14.9027,-7.9373 -23.4425,-9.7192 -8.0375,-1.6198 -15.9075,-2.5917 -23.1077,-2.5917 -16.5773,0 -32.6522,1.1339 -48.2247,3.4017 -15.2377,2.2678 -30.1405,4.8595 -44.2061,7.7753 l -5.1908,0.9719 -0.6698,5.0215 c -7.0328,47.1378 -14.4004,94.2756 -22.103,140.2794 -7.7026,46.0039 -18.0843,92.3317 -30.8102,137.5257 l -2.1769,7.6133 8.0375,1.4579 c 9.0421,1.6198 18.9215,2.4297 29.4707,2.4297 11.3864,0 23.61,-0.9719 36.0011,-3.0777 12.391,-1.9438 24.6147,-5.0215 36.5034,-8.9092 11.8888,-3.8876 23.2751,-8.9092 34.1592,-14.7407 10.8841,-5.8314 20.7634,-12.9588 28.9683,-20.7341 6.6979,-6.3174 12.2237,-13.2828 16.7447,-20.7341 0.8373,6.8034 2.1768,13.1208 3.8513,18.7903 3.3489,11.015 8.2049,20.0862 14.233,27.2135 6.0281,7.2894 13.3958,12.7969 21.7681,16.5226 8.2049,3.7256 17.5819,5.5075 27.4613,5.5075 11.5539,0 23.61,-2.4298 36.1686,-7.4514 12.2236,-4.8595 24.4472,-11.9869 36.336,-21.0581 11.7213,-9.0712 23.1076,-20.0862 33.8243,-32.883 9.7119,-11.501 18.2517,-24.6218 25.7868,-38.8765 -0.3349,4.2116 -0.5023,8.4232 -0.5023,12.4728 0,14.7407 1.6744,27.6996 5.0234,38.3906 3.3489,11.015 8.2049,20.0862 14.233,27.2136 6.028,7.2893 13.3957,12.7968 21.7681,16.5225 8.2049,3.7256 17.5819,5.5075 27.4613,5.5075 11.5538,0 23.61,-2.4298 36.1685,-7.4514 12.2236,-4.8595 24.4473,-11.9869 36.336,-21.0581 11.7213,-9.0712 23.1077,-20.0862 33.8243,-32.883 10.7166,-12.7969 20.2611,-27.5375 28.2986,-43.8981 0.5023,-0.9719 0.8372,-1.7818 1.3396,-2.7537 -10.0469,31.1012 -20.596,62.8503 -31.4801,94.4375 l -3.5164,10.2051 83.2212,-5.3455 1.507,-4.6976 c 0.3349,-1.1339 2.0094,-6.4794 3.349,-10.5291 2.0093,-6.4794 4.3536,-14.4167 7.2002,-23.6499 2.8466,-9.5571 5.8606,-19.9242 9.2096,-31.1012 2.5117,-8.5852 4.8559,-17.0084 7.2002,-25.1077 l -8.8747,99.945 32.3173,-1.9438 c 6.5304,-0.324 14.7353,-0.6479 24.1123,-0.9719 l 5.3583,-0.162 1.6745,-5.0216 c 3.5164,-10.853 7.5351,-22.3539 12.0562,-34.1789 4.5211,-11.9869 9.2096,-24.2978 14.0655,-36.9327 2.5117,-6.8034 5.19095,-13.6067 7.70265,-20.4101 l -3.51645,29.9673 c -1.1721,10.367 -2.1768,19.7622 -2.8466,28.1854 -0.6698,8.4233 -1.1721,15.5506 -1.6745,21.2201 -0.5023,7.9373 -0.6698,10.2051 -0.6698,11.0151 v 8.7472 l 85.23065,-14.7407 0.5023,-5.6695 c 2.3443,-30.6153 5.3583,-62.5264 8.5398,-94.9235 1.3396,-13.9307 2.8466,-28.6714 4.6885,-43.898 1.8419,-15.5506 3.6839,-31.2632 5.5258,-46.8138 1.8419,-15.5506 4.0187,-31.5872 6.5304,-47.4618 2.5117,-15.8745 5.0234,-31.5871 7.7026,-46.4898 l 1.8419,-10.3671 z m -729.56655,176.0782 c 3.014,1.6198 5.5257,3.5637 7.5351,5.9934 1.507,1.7819 2.1768,4.2117 2.1768,7.2894 0,4.8595 -1.3396,8.7472 -4.3536,11.9869 v 0 c -3.349,3.7257 -7.5351,6.8034 -12.5585,9.2332 -5.3584,2.4298 -11.0516,4.3736 -16.9122,5.5075 -2.3443,0.4859 -4.6885,0.9719 -6.8653,1.2959 0.5023,-2.5918 0.8372,-4.8596 1.3396,-7.1274 1.0046,-4.8596 1.8419,-9.5571 2.6791,-14.0927 0.8372,-4.3736 1.6745,-9.0712 2.6792,-13.9308 0.6697,-3.4017 1.3395,-7.1273 2.0093,-11.177 v 0 c 3.5164,0 7.3677,0.486 11.3864,1.2959 4.0187,0.648 7.5351,1.9438 10.8841,3.7257 z m 14.0655,-95.8954 c 2.8466,1.1339 5.1909,2.5918 6.8653,4.3736 0.6698,0.6479 1.5071,1.9438 1.5071,4.5356 0,0.4859 0,1.6198 -1.8419,3.4017 v 0 c -2.3443,2.1058 -5.5258,4.0496 -9.3771,5.9934 -4.3536,2.1059 -9.377,4.0497 -15.0702,5.6695 -2.0094,0.648 -4.0187,1.1339 -5.8607,1.6199 1.0047,-4.2116 1.842,-8.5852 2.6792,-12.7969 0.8372,-4.3736 1.507,-8.5852 2.1768,-12.4728 0.1675,-1.4579 0.5023,-2.7538 0.6698,-4.0497 2.3443,0.162 4.856,0.324 7.7026,0.8099 3.6838,0.648 7.2002,1.6199 10.5491,2.9158 z m 125.5853,147.0828 c -1.3396,-1.6199 -2.5117,-3.7257 -3.1815,-6.1555 -0.8373,-2.4297 -1.1722,-4.6975 -1.1722,-6.6414 0,-5.9934 0.6698,-13.1208 2.0094,-21.2201 1.3396,-8.2612 3.3489,-16.6845 6.363,-25.2697 3.014,-8.7472 6.6979,-17.3324 10.884,-25.9177 4.0188,-8.2612 8.8747,-15.7126 14.233,-22.03 5.1909,-6.1554 11.219,-11.339 17.7494,-15.0646 6.1956,-3.5637 12.726,-5.1836 20.0937,-5.1836 3.6838,0 4.8559,1.1339 5.3583,1.4579 1.6744,1.4579 2.8466,3.0777 3.6838,5.1835 1.0047,2.5918 1.6745,5.3455 2.0094,8.4233 0.3349,3.4017 0.5023,6.6414 0.5023,9.3951 0,10.3671 -1.6745,22.0301 -4.856,34.8269 -3.1815,12.7969 -7.87,24.9458 -13.7306,36.1228 -5.6932,10.853 -13.0609,20.2481 -21.7681,27.6995 -8.0375,6.9653 -17.0796,10.367 -27.4613,10.367 -1.8419,0 -3.5164,-0.4859 -5.1909,-1.4578 -2.5117,-1.4579 -4.1862,-2.9158 -5.5257,-4.5356 z m 199.9317,0 c -1.3396,-1.6199 -2.5117,-3.7257 -3.1815,-6.1555 -0.8373,-2.4297 -1.1722,-4.6975 -1.1722,-6.6414 0,-5.9934 0.6698,-13.1208 2.0094,-21.2201 1.3396,-8.2612 3.3489,-16.6845 6.363,-25.2697 3.014,-8.7472 6.6979,-17.3324 10.884,-25.9177 4.0188,-8.2612 8.8747,-15.7126 14.233,-22.03 5.1909,-6.1554 11.219,-11.339 17.7494,-15.0646 6.1956,-3.5637 12.726,-5.1836 20.0937,-5.1836 3.6838,0 4.8559,1.1339 5.3583,1.4579 1.6744,1.4579 2.8466,3.0777 3.6838,5.1835 1.0047,2.5918 1.6745,5.3455 2.0094,8.4233 0.3349,3.4017 0.5023,6.6414 0.5023,9.3951 0,10.3671 -1.6745,22.0301 -4.856,34.8269 -3.1815,12.7969 -7.87,24.9458 -13.7306,36.1228 -5.6932,10.853 -13.0609,20.2481 -21.7681,27.6995 -8.0375,6.9653 -17.0796,10.367 -27.4613,10.367 -1.8419,0 -3.5164,-0.4859 -5.1909,-1.4578 -2.3442,-1.4579 -4.1862,-2.9158 -5.5257,-4.5356 z"
   style="stroke-width:1.64694" />
	<text
   id="XMLID_51_"
   class="st16 st5 st17"
   x="225.47319"
   y="2427.7288"
   transform="scale(1.0167183,0.98355659)">BOOM</text>
	<path
   id="XMLID_121_"
   d="m 282.35295,1770.4078 c 0,0 123.241,177.698 330.038,166.0351 0,0 -209.1413,-4.8596 -319.4888,-182.0717 z"
   style="stroke-width:1.64694" />
	<path
   id="XMLID_120_"
   d="m 681.54655,1926.2378 c 0,0 174.3124,-31.5872 233.9235,-147.4068 l -16.9121,-9.7191 c 0.1674,0 -33.9918,107.5583 -217.0114,157.1259 z"
   style="stroke-width:1.64694" />
	<path
   id="XMLID_123_"
   d="m 211.35545,1823.215 -27.6288,26.8896 c 0,0 131.6134,126.0247 79.5374,279.5869 0,0 87.2398,-125.7007 -51.9086,-306.4765 z"
   style="stroke-width:1.64694" />
	<path
   id="XMLID_125_"
   d="m 488.14535,2690.9711 c 0,0 69.6579,-125.7007 211.8204,-139.4695 142.1625,-13.7687 209.9786,111.446 209.9786,111.446 0,0 -90.0865,-118.7353 -205.2901,-92.8176 -115.2035,25.9176 -174.8146,126.1866 -174.8146,126.1866 z"
   style="stroke-width:1.64694" />
	<path
   id="XMLID_126_"
   d="m 951.30375,1909.5533 c 0,0 -31.9824,111.7699 20.261,168.6268 0,0 -29.3032,-60.4205 -20.261,-168.6268 z"
   style="stroke-width:1.64694" />
	<path
   id="XMLID_132_"
   class="st11"
   d="m -46.404048,2560.4222 c 2.1,0.3 6.5,1 15.2,2.8 13.8,2.9 7.8,22.6 7.4,24 0.3,-1 4.9,-13.2 35,-15.8 25,-2.2 35.3,5.4 38.4,8.6 0.3,0.3 0.9,0.1 0.9,-0.4 -0.1,-6.1 7.1,-15.2 17.5,-19.4 9.8,-3.9 22.9,4.8 26.4,7.3 0.4,0.3 1,0.1 1.2,-0.4 1.3,-3.6 6.699998,-15.8 23.899998,-21.6 16.7,-5.6 34.3,2.5 40,5.5 0.4,0.2 0.9,-0.2 0.7,-0.7 -1.6,-2.9 -3.7,-9.7 0,-22.3 5.2,-17.7 20.3,-30.9 20.3,-30.9 0,0 -2.2,1.9 -20.8,4.4 -15.9,2.1 -28.3,-13.2 -31.7,-17.7 -0.3,-0.3 -0.8,-0.2 -0.8,0.2 -0.4,3.1 -3.4,10.5 -23.1,16.6 -21.299998,6.6 -32.599998,-5.2 -35.799998,-9.3 -0.2,-0.3 -0.7,-0.1 -0.7,0.3 0.1,4.1 -2.6,16 -30.9,30.8 -32.9000001,17.2 -54.6,8.5 -57.4,7.2 -0.2,-0.1 -0.4,0 -0.4,0.2 -0.5,2.2 -3.2,14.4 -7.3,20.7 -3.6,5.5 -13.8,8.3 -17.9,9.2 -0.4,0.2 -0.4,0.6 -0.1,0.7 z" />
	
	<path
   id="XMLID_146_"
   class="st11"
   d="m 164.19595,2501.0222 c 2.2,0.2 4.5,0.3 7,0.1 -2.4,0.2 -4.8,0.2 -7,-0.1 -1.4,0.2 -2.9,0.4 -4.6,0.6 -15.9,2.1 -28.3,-13.2 -31.7,-17.7 -0.3,-0.3 -0.8,-0.2 -0.8,0.2 -0.4,3.1 -3.4,10.5 -23.1,16.6 -21.299998,6.6 -32.599998,-5.2 -35.799998,-9.3 -0.2,-0.3 -0.7,-0.1 -0.7,0.3 0.1,4.1 -2.6,16 -30.9,30.8 -25,13.1 -43.6000001,11.2 -52.3,8.9 -3.1,-0.2 -4.8,-0.5 -4.8,-0.5 0,0 1.7,0.4 4.8,0.5 -2.7,-0.7 -4.5,-1.4 -5.2,-1.7 -0.2,-0.1 -0.4,0 -0.4,0.2 -0.5,2.2 -3.2,14.4 -7.3,20.7 -3.6,5.5 -13.8,8.3 -17.9,9.2 -0.3,0.1 -0.3,0.5 0,0.6 2.1,0.3 6.5,1 15.2,2.8 13.8,2.9 7.8,22.6 7.4,24 0.3,-1 4.9,-13.2 35,-15.8 25,-2.2 35.3,5.4 38.4,8.6 0.3,0.3 0.9,0.1 0.9,-0.4 -0.1,-6.1 7.1,-15.2 17.5,-19.4 9.8,-3.9 22.9,4.8 26.4,7.3 0.4,0.3 1,0.1 1.2,-0.4 1.3,-3.6 6.699998,-15.8 23.899998,-21.6 16.7,-5.6 34.3,2.5 40,5.5 0.4,0.2 0.9,-0.2 0.7,-0.7 -1.6,-2.9 -3.7,-9.7 0,-22.3 5.2,-17.7 20.3,-30.9 20.3,-30.9 0,0 -1.8,1.8 -16.2,3.9 z" />
	
	<path
   id="XMLID_157_"
   class="st3"
   d="m 1313.8814,2030.7163 c 28.3,-14.8 30.9,-26.7 30.9,-30.8 0,-0.4 0.5,-0.6 0.7,-0.3 3.2,4.1 14.5,15.9 35.8,9.3 19.7,-6.1 22.7,-13.5 23.1,-16.6 0,-0.4 0.6,-0.6 0.8,-0.2 3.3,4.5 15.7,19.8 31.7,17.7 1.7,-0.2 3.2,-0.4 4.6,-0.6 -26.7,-2.9 -37.9,-36 -37.9,-36 0,0 -5,19.1 -26.7,24.5 -21.7,5.4 -38.9,-17.4 -38.8,-16.9 0.1,0.5 -8.9,30.7 -34.4,46.8 -18.3,11.5 -34.3,12.5 -42,12.1 8.6,2.2 27.1,4.1 52.2,-9 z" />
	
	<path
   id="XMLID_138_"
   d="m 46.995952,2582.9222 c 0,0 0,0.1 0,0 0,0.1 0,0 0,0 z" />
	
	
	
	
	
	
	<g
   id="XMLID_1429_"
   transform="matrix(1.3347176,0,0,1.5140139,1001.6561,1667.2549)">
		<polygon
   id="XMLID_1432_"
   class="st1"
   points="744.6,1020.1 816.8,1005.6 869.7,1056.9 878.2,983.8 943.3,949.4 876.4,918.6 863.7,846.1 813.8,900.3 741,889.9 777,954 " />
		<polygon
   id="XMLID_1435_"
   class="st2"
   points="738.1,1007.5 810.3,993 863.2,1044.3 871.7,971.1 936.8,936.7 869.9,906 857.2,833.5 807.3,887.6 734.5,877.2 770.5,941.4 " />
		<g
   id="XMLID_3_">
			<g
   id="XMLID_1436_">
				<polygon
   id="XMLID_1433_"
   class="st12"
   points="814.6,978.1 762.4,988.6 785.8,940.8 759.7,894.4 812.5,901.9 848.6,862.7 857.7,915.2 906.1,937.4 859,962.3 852.8,1015.2 " />
			</g>
			<g
   id="XMLID_1434_">
				<path
   id="XMLID_1438_"
   d="M 855.6,1022.9 813.5,982 756,993.5 781.8,940.8 753,889.7 l 58.1,8.3 39.8,-43.2 10.1,57.8 53.3,24.5 -51.9,27.4 z m -39.8,-48.7 34.3,33.3 5.5,-47.5 42.3,-22.4 -43.5,-20 -8.2,-47.1 -32.4,35.2 -47.4,-6.8 23.4,41.7 -21.1,42.9 z" />
			</g>
		</g>
		<polygon
   id="XMLID_1430_"
   class="st13"
   points="819.2,962.1 792.9,967.4 804.7,943.3 791.6,920 818.1,923.8 836.3,904 840.9,930.4 865.2,941.6 841.6,954.1 838.4,980.8 " />
		<polygon
   id="XMLID_1431_"
   class="st10"
   points="822.7,951.4 812.8,953.4 817.3,944.3 812.3,935.6 822.3,937 829.1,929.6 830.9,939.5 840,943.7 831.1,948.4 830,958.4 " />
	</g>
	<g
   id="XMLID_1441_"
   transform="translate(294.8343,1028.0808)">
		<polygon
   id="XMLID_1462_"
   class="st1"
   points="801.5,763.4 792.8,803.4 829.8,785.9 865.1,806.5 860,766 890.5,738.7 850.3,731.1 833.8,693.6 814.1,729.5 773.4,733.6 " />
		<polygon
   id="XMLID_1461_"
   class="st2"
   points="796.3,757.5 787.6,797.4 824.6,780 860,800.6 854.8,760 885.3,732.8 845.1,725.1 828.6,687.7 808.9,723.5 768.2,727.6 " />
		<g
   id="XMLID_1450_">
			<g
   id="XMLID_1459_">
				<polygon
   id="XMLID_1460_"
   class="st12"
   points="850.5,786.3 824.9,771.4 798.2,784 804.4,755.1 784.2,733.5 813.6,730.5 827.9,704.6 839.8,731.7 868.9,737.2 846.8,756.9 " />
			</g>
			<g
   id="XMLID_1455_">
				<path
   id="XMLID_1456_"
   d="m 853,790.1 -28.2,-16.4 -29.5,13.9 6.9,-31.9 -22.3,-23.8 32.5,-3.3 15.7,-28.6 13.1,29.9 32,6.1 -24.3,21.7 z m -28,-21 23,13.4 -3.3,-26.4 19.8,-17.7 -26.1,-5 -10.7,-24.3 -12.8,23.3 -26.5,2.7 18.2,19.4 -5.6,26 z" />
			</g>
		</g>
		<polygon
   id="XMLID_1445_"
   class="st13"
   points="838.2,769.6 825.3,762.1 811.8,768.5 815,753.9 804.8,743.1 819.6,741.6 826.8,728.5 832.8,742.2 847.4,744.9 836.3,754.9 " />
		<polygon
   id="XMLID_1442_"
   class="st10"
   points="830.6,758.7 825.7,755.9 820.7,758.3 821.9,752.8 818,748.7 823.6,748.2 826.3,743.2 828.6,748.4 834.1,749.4 829.9,753.2 " />
	</g>
<path
   id="XMLID_72_-3"
   class="st1"
   d="m 268.2677,1120.0178 c 18.5765,-26.7593 40.9832,-49.8074 66.8372,-68.5584 48.0692,-34.9628 106.2884,-53.90914 165.2737,-53.90914 l 1.149,-1.5626 c 23.1728,-33.4003 66.6457,-46.0963 103.6073,-30.2751 12.8312,5.4691 25.2794,11.5241 37.3446,17.7744 22.7897,-21.8762 50.5588,-33.0096 80.4344,-32.2283 19.3426,0.586 36.9616,4.6878 51.3249,8.0082 31.5992,7.4223 34.4719,6.641 43.0899,-2.7345 13.5971,-14.8445 35.6209,-16.4071 51.3247,-3.9064 l 11.2992,8.9848 c 8.4264,6.641 13.5972,16.7978 14.5548,27.5406 0.766,10.7427 -2.6812,21.68084 -9.9586,29.49374 -45.5795,50.5887 -96.7128,38.674 -130.4186,30.6658 -7.852,-1.7579 -15.3209,-3.5159 -22.5983,-4.6878 12.0652,10.7428 23.3643,22.0715 33.7059,33.5956 27.003,30.6657 29.6841,75.7853 6.3198,109.3809 l -2.2981,3.3205 c 30.8332,89.0673 17.8105,186.5334 -36.004,264.272 -6.7029,9.7662 -14.1718,19.1417 -22.0237,27.9312 -71.8165,80.4731 -179.637,110.9435 -278.265,86.3328 -33.8974,-8.3989 -66.6457,-23.4388 -96.5213,-44.9243 -62.0495,-44.729 -103.2243,-111.5295 -116.247,-187.9008 -12.8312,-76.176 4.2132,-153.1332 48.0692,-216.6132 z"
   style="fill:#a6cdd1;stroke-width:1.93407" /><path
   id="XMLID_76_-6"
   class="st2"
   d="m 296.8028,1101.2668 c 18.5765,-26.7593 40.9832,-49.8074 66.8372,-68.5584 48.0691,-34.96284 106.2884,-53.90914 165.2737,-53.90914 l 1.149,-1.5626 c 23.1728,-33.4003 66.6457,-46.0963 103.6073,-30.2751 12.8312,5.469 25.2794,11.5241 37.3445,17.7744 22.7898,-21.8762 50.5589,-33.0096 80.4345,-32.2283 19.3426,0.586 36.9616,4.6877 51.3249,8.0082 31.5991,7.4223 34.4718,6.641 43.0898,-2.7345 13.5972,-14.8445 35.6209,-16.4071 51.3248,-3.9064 l 11.2991,8.9848 c 8.42648,6.641 13.59728,16.7978 14.55478,27.5406 0.7661,10.7427 -2.6811,21.6808 -9.9585,29.4937 -45.57948,50.58874 -96.71278,38.67404 -130.41868,30.66584 -7.8519,-1.758 -15.3208,-3.5159 -22.5982,-4.6878 12.0652,10.7428 23.3643,22.0715 33.7059,33.5956 27.003,30.6657 29.684,75.7853 6.3198,109.3809 l -2.2981,3.3204 c 30.8331,89.0673 17.8105,186.5335 -36.004,264.2721 -6.7029,9.7661 -14.1718,19.1416 -22.0237,27.9312 -71.8165,80.4731 -179.637,110.9435 -278.265,86.3328 -33.8974,-8.3989 -66.6457,-23.4388 -96.5214,-44.9243 -62.0494,-44.729 -103.2242,-111.5295 -116.2469,-187.9008 -13.0227,-76.3713 4.2132,-153.3286 48.0692,-216.6132 z"
   style="fill:#ffffff;stroke-width:1.93407" /><polygon
   id="XMLID_73_-7"
   class="st12"
   points="1090.2,665.2 1171.5,729.7 1242.6,655.7 1250.9,744.1 1345.7,761.2 1238.8,852.2 1116.2,771.2 "
   transform="matrix(-1.9151064,0,0,1.9532302,2693.7498,-474.59934)"
   style="fill:#ef4432" /><path
   id="XMLID_74_-5"
   class="st13"
   d="m 500.7616,1083.2971 c 0.766,-2.9299 48.8352,-145.71104 48.8352,-145.71104 l -81.392,83.98894 -103.7988,-92.97384 -9.384,125.39744 -120.2687,-11.9147 128.6952,119.733 z"
   style="fill:#f79433;stroke-width:1.93407" /><g
   id="XMLID_63_-3"
   transform="matrix(-1.9151064,0,0,1.9532302,2693.7498,-474.59934)"><g
     id="XMLID_36_-5"><path
       id="XMLID_68_-6"
       d="m 1063.8,772.8 -16.3,6.1 8.1,-3 -8.1,3.1 c -0.1,-0.3 -9.8,-25.2 -30.2,-24.6 -6.9,0.2 -13.8,1.8 -20.5,3.3 -16.9,3.9 -35.8,8.2 -53.8,-11.3 -2,-2.1 -1.7,-5.5 0.6,-7.3 l 5.9,-4.6 c 2,-1.6 4.9,-1.4 6.6,0.5 10.9,11.7 21,9.4 36.8,5.7 7.1,-1.6 15.2,-3.5 23.9,-3.8 32.9,-1 46.4,34.4 47,35.9 z" /></g><path
     id="XMLID_66_-2"
     d="m 1011.1,845.4 -7.8,-11 c -8.1,-11.4 -7.2,-26.9 2.2,-37.3 14.1,-15.6 39,-37.6 78.1,-54 12.9,-5.4 27.9,-1.1 36,10.3 l 17.2,24.3 z" /><path
     id="XMLID_69_-9"
     d="m 1210.1,785.4 c -2.5,-1.3 -80.7,-42.6 -147.8,9.6 -62,48.2 -74.2,127 -28.6,189.2 44.8,49.2 120.2,58.4 175.9,19 60.2,-42.6 74.5,-126 31.9,-186.3 -8.9,-12.4 -19.5,-23 -31.4,-31.5 z" /><path
     id="XMLID_70_-1"
     class="st14"
     d="m 1062.3,795 c 67.1,-52.2 145.3,-11 147.8,-9.6 -45,-32.1 -107.2,-34 -154.9,-0.3 -60.2,42.6 -74.5,126 -31.9,186.3 3.2,4.6 6.7,8.9 10.4,12.9 C 988,922 1000.3,843.2 1062.3,795 Z" /><path
     id="XMLID_67_-2"
     class="st2"
     d="m 1018.7,912.3 c 0,0 33.1,109.8 121.8,96 55.5,-8.7 83.2,-44.6 96.1,-70.2 6.4,-12.8 -2.2,-28 -16.4,-29.3 v 0 c -7.8,-0.7 -15.3,3.2 -19.3,9.9 -10.3,17.4 -34.3,49.5 -73.9,54.5 -54.7,6.8 -108.3,-60.9 -108.3,-60.9 z" /></g></g>
</svg>
