<?xml version="1.0" encoding="UTF-8" standalone="no"?>
<svg
   xmlns:dc="http://purl.org/dc/elements/1.1/"
   xmlns:cc="http://creativecommons.org/ns#"
   xmlns:rdf="http://www.w3.org/1999/02/22-rdf-syntax-ns#"
   xmlns:svg="http://www.w3.org/2000/svg"
   xmlns="http://www.w3.org/2000/svg"
   xmlns:sodipodi="http://sodipodi.sourceforge.net/DTD/sodipodi-0.dtd"
   xmlns:inkscape="http://www.inkscape.org/namespaces/inkscape"
   width="24"
   height="24"
   viewBox="0 0 24 24"
   version="1.1"
   id="svg4"
   sodipodi:docname="so_sync.svg"
   inkscape:version="1.0.1 (0767f8302a, 2020-10-17)">
  <metadata
     id="metadata10">
    <rdf:RDF>
      <cc:Work
         rdf:about="">
        <dc:format>image/svg+xml</dc:format>
        <dc:type
           rdf:resource="http://purl.org/dc/dcmitype/StillImage" />
        <dc:title></dc:title>
      </cc:Work>
    </rdf:RDF>
  </metadata>
  <defs
     id="defs8" />
  <sodipodi:namedview
     pagecolor="#ffffff"
     bordercolor="#666666"
     borderopacity="1"
     objecttolerance="10"
     gridtolerance="10"
     guidetolerance="10"
     inkscape:pageopacity="0"
     inkscape:pageshadow="2"
     inkscape:window-width="1848"
     inkscape:window-height="1016"
     id="namedview6"
     showgrid="true"
     inkscape:zoom="16"
     inkscape:cx="12.100046"
     inkscape:cy="3.7949265"
     inkscape:window-x="72"
     inkscape:window-y="27"
     inkscape:window-maximized="1"
     inkscape:current-layer="svg4">
    <inkscape:grid
       type="xygrid"
       id="grid835" />
    <sodipodi:guide
       position="0,24"
       orientation="0,24"
       id="guide837" />
    <sodipodi:guide
       position="24,24"
       orientation="24,0"
       id="guide839" />
    <sodipodi:guide
       position="24,0"
       orientation="0,-24"
       id="guide841" />
    <sodipodi:guide
       position="0,0"
       orientation="-24,0"
       id="guide843" />
  </sodipodi:namedview>
  <path
     d="M15.408 21h-9.908c-3.037 0-5.5-2.463-5.5-5.5 0-2.702 1.951-4.945 4.521-5.408.212-3.951 3.473-7.092 7.479-7.092 3.267 0 6.037 2.089 7.063 5.003l-.063-.003c-.681 0-1.336.102-1.958.283-.878-2.025-2.73-3.283-5.042-3.283-3.359 0-5.734 2.562-5.567 6.78-1.954-.113-4.433.923-4.433 3.72 0 1.93 1.57 3.5 3.5 3.5h7.76c.566.81 1.3 1.49 2.148 2zm2.257-8.669c.402-.206.852-.331 1.335-.331 1.455 0 2.67 1.042 2.941 2.418l1.96-.398c-.456-2.291-2.475-4.02-4.901-4.02-.957 0-1.845.278-2.604.745l-1.396-1.745-1 5h5l-1.335-1.669zm5.335 8.669l-1.396-1.745c-.759.467-1.647.745-2.604.745-2.426 0-4.445-1.729-4.901-4.02l1.96-.398c.271 1.376 1.486 2.418 2.941 2.418.483 0 .933-.125 1.335-.331l-1.335-1.669h5l-1 5z"
     id="path2" />
  <path
     style="fill:none;stroke:#000000;stroke-width:2.5;stroke-linecap:butt;stroke-linejoin:miter;stroke-opacity:1;stroke-miterlimit:4;stroke-dasharray:none"
     d="M 0,0 24,24"
     id="path845" />
  <path
     style="fill:none;stroke:#000000;stroke-width:2.5;stroke-linecap:butt;stroke-linejoin:miter;stroke-opacity:1;stroke-miterlimit:4;stroke-dasharray:none"
     d="M 0,24 24,0"
     id="path847" />
</svg>
