<?xml version="1.0" encoding="UTF-8" standalone="no"?>
<svg
   xmlns:dc="http://purl.org/dc/elements/1.1/"
   xmlns:cc="http://creativecommons.org/ns#"
   xmlns:rdf="http://www.w3.org/1999/02/22-rdf-syntax-ns#"
   xmlns:svg="http://www.w3.org/2000/svg"
   xmlns="http://www.w3.org/2000/svg"
   xmlns:sodipodi="http://sodipodi.sourceforge.net/DTD/sodipodi-0.dtd"
   xmlns:inkscape="http://www.inkscape.org/namespaces/inkscape"
   version="1.1"
   id="svg2"
   xml:space="preserve"
   width="540"
   height="382.66666"
   viewBox="0 0 540 382.66666"
   sodipodi:docname="boom.svg"
   inkscape:version="1.0.1 (3bc2e81, 2020-09-07)"><metadata
     id="metadata8"><rdf:RDF><cc:Work
         rdf:about=""><dc:format>image/svg+xml</dc:format><dc:type
           rdf:resource="http://purl.org/dc/dcmitype/StillImage" /><dc:title></dc:title></cc:Work></rdf:RDF></metadata><defs
     id="defs6"><clipPath
       clipPathUnits="userSpaceOnUse"
       id="clipPath22"><path
         d="m 1510.79,2575.14 c 0,0 124.67,-194.24 276.02,-119.89 169.42,83.23 255.58,356.1 255.58,356.1 0,0 -78.39,-345.28 170.38,-375.37 248.76,-30.08 453.25,347.16 453.25,347.16 0,0 -260.14,-389.87 -68.18,-620.51 203.35,-244.28 620.2,-373.72 1393.75,-465.38 0,0 -1117.72,-186.86 -609.97,-698.078 0,0 -616.8,341.978 -988.22,155.138 C 2021.96,967.441 1889.07,692.441 1647.11,82.5 c 0,0 221.49,750.949 17.02,1043.58 -204.46,292.63 -657.69,-91.67 -831.489,-250.318 0,0 418.639,430.108 408.929,750.968 -9.37,309.75 -667.914,426.6 -667.914,426.6 0,0 572.624,-111.53 858.744,70.51 282.42,179.7 78.39,451.3 78.39,451.3 z"
         id="path20" /></clipPath><radialGradient
       fx="0"
       fy="0"
       cx="0"
       cy="0"
       r="1"
       gradientUnits="userSpaceOnUse"
       gradientTransform="matrix(1527.88,0,0,1580.75,2282.5,1446.25)"
       spreadMethod="pad"
       id="radialGradient28"><stop
         style="stop-opacity:1;stop-color:#f2561a"
         offset="0"
         id="stop24" /><stop
         style="stop-opacity:1;stop-color:#ef3021"
         offset="1"
         id="stop26" /></radialGradient></defs><sodipodi:namedview
     pagecolor="#ffffff"
     bordercolor="#666666"
     borderopacity="1"
     objecttolerance="10"
     gridtolerance="10"
     guidetolerance="10"
     inkscape:pageopacity="0"
     inkscape:pageshadow="2"
     inkscape:window-width="1848"
     inkscape:window-height="1016"
     id="namedview4"
     showgrid="false"
     inkscape:zoom="2.2526133"
     inkscape:cx="270"
     inkscape:cy="191.33333"
     inkscape:window-x="72"
     inkscape:window-y="27"
     inkscape:window-maximized="1"
     inkscape:current-layer="g10" /><g
     id="g10"
     inkscape:groupmode="layer"
     inkscape:label="ink_ext_XXXXXX"
     transform="matrix(1.3333333,0,0,-1.3333333,0,382.66667)"><g
       id="g12"
       transform="scale(0.1)"><path
         d="m 1510.79,2575.14 c 0,0 178.39,-186.33 308.67,-109.34 146.13,86.37 222.93,345.55 222.93,345.55 0,0 -25.59,-350.33 223.68,-375.37 196.22,-19.71 399.95,347.16 399.95,347.16 0,0 -215.7,-386.33 -14.88,-620.51 206.8,-241.14 620.22,-373.72 1393.75,-465.38 0,0 -1136.36,-206.04 -628.61,-717.25 0,0 -598.15,361.15 -969.59,174.31 C 2075.25,967.441 1893.72,704.18 1651.78,94.2422 c 0,0 270.1,739.2068 65.66,1031.8378 -204.48,292.63 -705.32,-86.47 -879.112,-245.131 0,0 466.772,424.941 456.542,745.781 -10.23,320.83 -497.397,387.39 -497.397,387.39 0,0 389.947,-91.21 688.237,109.72 240.79,162.21 25.08,451.3 25.08,451.3"
         style="fill:#211d1e;fill-opacity:1;fill-rule:nonzero;stroke:none"
         id="path14" /><g
         id="g16"><g
           id="g18"
           clip-path="url(#clipPath22)"><path
             d="m 1510.79,2575.14 c 0,0 124.67,-194.24 276.02,-119.89 169.42,83.23 255.58,356.1 255.58,356.1 0,0 -78.39,-345.28 170.38,-375.37 248.76,-30.08 453.25,347.16 453.25,347.16 0,0 -260.14,-389.87 -68.18,-620.51 203.35,-244.28 620.2,-373.72 1393.75,-465.38 0,0 -1117.72,-186.86 -609.97,-698.078 0,0 -616.8,341.978 -988.22,155.138 C 2021.96,967.441 1889.07,692.441 1647.11,82.5 c 0,0 221.49,750.949 17.02,1043.58 -204.46,292.63 -657.69,-91.67 -831.489,-250.318 0,0 418.639,430.108 408.929,750.968 -9.37,309.75 -667.914,426.6 -667.914,426.6 0,0 572.624,-111.53 858.744,70.51 282.42,179.7 78.39,451.3 78.39,451.3"
             style="fill:url(#radialGradient28);fill-opacity:1;fill-rule:nonzero;stroke:none"
             id="path30" /></g></g><path
         d="m 1638.68,2411.56 c 0,0 104.93,-168.36 224.63,-111.4 119.69,56.95 150.54,285.04 150.54,285.04 0,0 -21.68,-253.11 148.69,-298.59 130.5,-34.83 352.34,237.3 352.34,237.3 0,0 -225.47,-258.42 -81.82,-429.33 143.63,-170.89 609.6,-326 1153,-390.37 0,0 -823.16,-164.37 -466.48,-523.5 0,0 -569.22,336.81 -830.16,205.52 -260.93,-131.25 -327.75,-412.89 -497.71,-841.371 0,0 129.04,615.981 -14.59,821.571 -143.63,205.55 -551.95,-122.77 -674.04,-234.22 0,0 384.39,360.52 377.19,585.9 -7.17,225.39 -515.411,264.45 -515.411,264.45 0,0 435.691,-49.37 649.471,84.78 182.31,114.4 24.35,344.22 24.35,344.22"
         style="fill:#f3631e;fill-opacity:1;fill-rule:nonzero;stroke:none"
         id="path32" /><path
         d="m 1689.95,2330.49 c 0,0 122.13,-138.77 226.43,-89.15 104.28,49.62 89.01,258.95 89.01,258.95 0,0 23.24,-231.13 171.69,-270.76 113.69,-30.35 269.39,207.09 269.39,207.09 0,0 -158.84,-225.49 -33.7,-374.39 125.13,-148.89 553.98,-307.11 1027.44,-363.21 0,0 -740.05,-120.11 -429.28,-433.01 0,0 -495.97,293.45 -723.3,179.07 -227.35,-114.36 -309.85,-374.77 -457.91,-748.092 0,0 136.71,551.702 11.55,730.822 -125.13,179.1 -480.89,-106.95 -587.26,-204.07 0,0 334.9,314.12 328.64,510.48 -6.26,196.37 -449.06,230.41 -449.06,230.41 0,0 379.59,-43.02 565.86,73.85 158.83,99.67 -9.5,292.01 -9.5,292.01"
         style="fill:#f6e5d0;fill-opacity:1;fill-rule:nonzero;stroke:none"
         id="path34" /><path
         d="m 2553.54,1892.62 1184.72,606.49 27.01,-26.02 z"
         style="fill:#f2551a;fill-opacity:1;fill-rule:nonzero;stroke:none"
         id="path36" /><path
         d="m 2617.78,1991.04 508.39,507.51 38.75,-17.91 z"
         style="fill:#f2551a;fill-opacity:1;fill-rule:nonzero;stroke:none"
         id="path38" /><path
         d="m 2579.11,2209.3 v 324.25 h 46.88 z"
         style="fill:#f2551a;fill-opacity:1;fill-rule:nonzero;stroke:none"
         id="path40" /><path
         d="m 2616.1,2144.15 254.23,352.45 42.08,-14.01 z"
         style="fill:#f2551a;fill-opacity:1;fill-rule:nonzero;stroke:none"
         id="path42" /><path
         d="m 946.785,2665.69 41.965,14.19 410.73,-560.58 z"
         style="fill:#f2551a;fill-opacity:1;fill-rule:nonzero;stroke:none"
         id="path44" /><path
         d="m 944.805,2320.98 35.34,20.92 669.795,-522.46 z"
         style="fill:#f2551a;fill-opacity:1;fill-rule:nonzero;stroke:none"
         id="path46" /><path
         d="m 1216.95,1923.89 -795.196,599.43 34.769,21.32 z"
         style="fill:#f2551a;fill-opacity:1;fill-rule:nonzero;stroke:none"
         id="path48" /><path
         d="m 1423.24,1753.58 -915.357,345.99 22.762,27.82 z"
         style="fill:#f2551a;fill-opacity:1;fill-rule:nonzero;stroke:none"
         id="path50" /><path
         d="m 988.918,1846.91 -846.867,174.47 13.574,30.46 z"
         style="fill:#f2551a;fill-opacity:1;fill-rule:nonzero;stroke:none"
         id="path52" /><path
         d="m 550.445,1121.56 -18.465,29.28 890.04,224.49 z"
         style="fill:#f2551a;fill-opacity:1;fill-rule:nonzero;stroke:none"
         id="path54" /><path
         d="M 558.285,589.59 524.109,611.371 1789.96,1527.73 Z"
         style="fill:#f2551a;fill-opacity:1;fill-rule:nonzero;stroke:none"
         id="path56" /><path
         d="m 989.566,1122.76 -25.093,26.88 435.757,187.96 z"
         style="fill:#f2551a;fill-opacity:1;fill-rule:nonzero;stroke:none"
         id="path58" /><path
         d="M 2342.38,600.488 H 2295.5 V 1230.18 Z"
         style="fill:#f2551a;fill-opacity:1;fill-rule:nonzero;stroke:none"
         id="path60" /><path
         d="M 2741.94,172.648 2421.17,849.34 2786.54,182.41 Z"
         style="fill:#f2551a;fill-opacity:1;fill-rule:nonzero;stroke:none"
         id="path62" /><path
         d="m 2739.88,510 -318.2,542.77 361.76,-530.989 z"
         style="fill:#f2551a;fill-opacity:1;fill-rule:nonzero;stroke:none"
         id="path64" /><path
         d="m 2899.83,1459.69 1001.65,297.58 16.94,-29.7 z"
         style="fill:#f2551a;fill-opacity:1;fill-rule:nonzero;stroke:none"
         id="path66" /><path
         d="m 3148.41,1458.73 502.71,73.92 5.71,-31.6 z"
         style="fill:#f2551a;fill-opacity:1;fill-rule:nonzero;stroke:none"
         id="path68" /><path
         d="m 2496.77,1926.04 1184.76,606.49 26.99,-26.03 z"
         style="fill:#ee2b22;fill-opacity:1;fill-rule:nonzero;stroke:none"
         id="path70" /><path
         d="m 2561.01,2024.45 508.4,507.51 38.76,-17.91 z"
         style="fill:#ee2b22;fill-opacity:1;fill-rule:nonzero;stroke:none"
         id="path72" /><path
         d="m 2522.36,2242.71 v 324.26 h 46.88 z"
         style="fill:#ee2b22;fill-opacity:1;fill-rule:nonzero;stroke:none"
         id="path74" /><path
         d="m 2559.36,2177.57 254.19,352.45 42.08,-14.02 z"
         style="fill:#ee2b22;fill-opacity:1;fill-rule:nonzero;stroke:none"
         id="path76" /><path
         d="m 890.016,2699.1 41.949,14.2 410.755,-560.59 z"
         style="fill:#ee2b22;fill-opacity:1;fill-rule:nonzero;stroke:none"
         id="path78" /><path
         d="m 888.027,2354.4 35.34,20.91 669.823,-522.46 z"
         style="fill:#ee2b22;fill-opacity:1;fill-rule:nonzero;stroke:none"
         id="path80" /><path
         d="m 1160.17,1957.31 -795.205,599.43 34.82,21.32 z"
         style="fill:#ee2b22;fill-opacity:1;fill-rule:nonzero;stroke:none"
         id="path82" /><path
         d="m 1366.48,1787 -915.375,345.98 22.801,27.82 z"
         style="fill:#ee2b22;fill-opacity:1;fill-rule:nonzero;stroke:none"
         id="path84" /><path
         d="M 932.141,1880.32 85.2656,2054.8 98.8789,2085.23 Z"
         style="fill:#ee2b22;fill-opacity:1;fill-rule:nonzero;stroke:none"
         id="path86" /><path
         d="m 493.672,1154.98 -18.469,29.26 890.027,224.51 z"
         style="fill:#ee2b22;fill-opacity:1;fill-rule:nonzero;stroke:none"
         id="path88" /><path
         d="m 501.543,623.012 -34.18,21.777 1265.847,916.361 z"
         style="fill:#ee2b22;fill-opacity:1;fill-rule:nonzero;stroke:none"
         id="path90" /><path
         d="m 932.793,1156.18 -25.113,26.87 435.76,187.96 z"
         style="fill:#ee2b22;fill-opacity:1;fill-rule:nonzero;stroke:none"
         id="path92" /><path
         d="m 2285.61,633.91 h -46.88 v 629.68 z"
         style="fill:#ee2b22;fill-opacity:1;fill-rule:nonzero;stroke:none"
         id="path94" /><path
         d="M 2685.19,206.059 2364.38,882.75 2729.79,215.832 Z"
         style="fill:#ee2b22;fill-opacity:1;fill-rule:nonzero;stroke:none"
         id="path96" /><path
         d="m 2683.1,543.41 -318.17,542.78 361.73,-530.991 z"
         style="fill:#ee2b22;fill-opacity:1;fill-rule:nonzero;stroke:none"
         id="path98" /><path
         d="m 2843.05,1493.1 1001.68,297.56 16.94,-29.68 z"
         style="fill:#ee2b22;fill-opacity:1;fill-rule:nonzero;stroke:none"
         id="path100" /><path
         d="m 3091.63,1492.15 502.75,73.9 5.7,-31.59 z"
         style="fill:#ee2b22;fill-opacity:1;fill-rule:nonzero;stroke:none"
         id="path102" /><path
         d="m 974.449,1484.57 c 0.364,-13.81 0.856,-27.61 1.442,-41.29 9.093,18.85 15.75,37.43 19.902,55.68 -5.422,-3.2 -12.418,-7.79 -21.344,-14.39 z m 15.61,-279.09 c 0.785,-11.78 1.882,-25.07 3.285,-39.84 41.556,39.35 54.036,63.73 57.166,77.27 -0.31,-0.13 -0.64,-0.25 -0.95,-0.4 -14.44,-6.18 -34.42,-18.62 -59.501,-37.03 z M 817.949,857.23 c -9.457,140.29 -28.054,329.52 -55.269,562.4 -7.282,65.82 -13.946,117.72 -19.848,154.47 l -2.875,17.89 15.031,9.36 c 17.645,10.96 51.067,34.81 99.36,70.88 43.332,31.6 79.16,55.37 106.707,70.84 l 0.586,0.34 0.605,0.3 c 11.156,5.51 22.063,10.55 32.41,14.98 14.034,6.02 27.424,10.74 39.774,14.04 37.54,10.04 68.62,7.7 92.38,-6.97 21.2,-13.06 35.62,-35.12 42.89,-65.52 19.43,-77.79 1.75,-171.51 -52.61,-279.06 28.45,3.32 65.57,-2.12 87.74,-43.86 l 0.4,-0.76 c 4.87,-9.91 8.78,-20.74 11.65,-32.19 13.51,-54.11 3.54,-118.73 -29.65,-192.06 -24.3,-53.9 -58.21,-107.23 -100.79,-158.501 -51.78,-62.438 -117.983,-111.231 -196.768,-144.957 -12.137,-5.223 -24.688,-10.211 -37.301,-14.891 l -32.055,-11.871 -2.367,35.14"
         style="fill:#100f0d;fill-opacity:1;fill-rule:nonzero;stroke:none"
         id="path104" /><path
         d="m 929.844,1524.15 c 0.504,-20.78 1.261,-41.64 2.25,-62.11 l 1.511,-31.31 c 22.879,35.48 37.84,70.52 44.575,104.5 2.351,11.39 1.644,15.81 1.371,16.9 -0.008,0.06 -0.031,0.12 -0.039,0.16 -0.742,0 -2.028,-0.12 -4.024,-0.65 -1.754,-0.47 -3.75,-1.17 -5.933,-2.11 -9.832,-4.22 -23.176,-12.74 -39.711,-25.38 z m 15.344,-279.23 c 1.16,-19.8 3.296,-44.39 6.39,-73.4 74.182,64.74 85.022,100.51 80.302,119.42 -0.2,0.79 -0.39,1.14 -0.44,1.23 0,0 0,-0.01 -0.01,-0.01 -0.14,-0.03 -2.5,0.69 -8.7,-0.97 -2.84,-0.75 -6.08,-1.91 -9.64,-3.44 -16.445,-7.04 -39.266,-21.44 -67.902,-42.83 z M 815.367,879.082 c -3.492,-0.934 -7.222,-0.312 -10.273,1.746 -3.379,2.293 -5.531,6.082 -5.817,10.242 -9.472,140.51 -28.093,329.97 -55.332,563.09 -7.285,65.94 -13.984,118.08 -19.918,155.04 -0.867,5.4 1.543,10.8 6.078,13.62 17.942,11.16 51.668,35.23 100.25,71.51 42.813,31.2 78.204,54.7 105.325,69.94 0.187,0.1 0.394,0.21 0.593,0.31 10.95,5.41 21.649,10.36 31.786,14.7 13.48,5.78 26.296,10.3 38.061,13.45 34.09,9.11 61.86,7.27 82.55,-5.5 18.13,-11.19 30.57,-30.46 36.97,-57.28 20.15,-80.63 -1.67,-179.77 -64.87,-295.03 2.82,0.92 5.59,1.72 8.29,2.45 54.36,14.53 80.54,-10.22 92.94,-33.55 0.07,-0.13 0.13,-0.26 0.2,-0.38 4.44,-9.06 8.02,-18.98 10.66,-29.49 12.74,-51.02 3.04,-112.62 -28.84,-183.06 -23.81,-52.81 -57.09,-105.13 -98.9,-155.47 -50.44,-60.85 -115.022,-108.408 -191.917,-141.33 -11.949,-5.121 -24.297,-10.051 -36.711,-14.649 -0.371,-0.132 -0.746,-0.261 -1.125,-0.359"
         style="fill:#ffffff;fill-opacity:1;fill-rule:nonzero;stroke:none"
         id="path106" /><path
         d="m 936.438,1518.73 c 0.496,-23.24 1.3,-46.35 2.414,-69.34 l 3.316,-68.94 c 36.437,47.59 59.212,94.29 68.282,140.14 2.1,10.11 2.52,17.76 1.23,22.91 -2.72,10.9 -11.867,13.03 -27.418,6.38 -11.961,-5.13 -27.895,-15.52 -47.824,-31.15 z m 15.125,-279.27 c 1.304,-26.45 4.488,-61.7 9.527,-105.73 77.44,63.71 111.74,113.24 102.92,148.56 -3.2,12.85 -15.28,14.78 -36.21,5.83 -18.55,-7.95 -43.96,-24.17 -76.237,-48.66 z m -195.176,359.95 c 18.34,11.41 52.058,35.44 101.164,72.11 42.562,31.04 77.207,54.03 103.926,69.05 10.601,5.23 20.972,10.05 31.152,14.4 78.951,33.82 125.661,20.4 140.141,-40.19 21.33,-85.41 -6.39,-191.83 -83.14,-319.23 60.47,30.87 100.71,27.5 120.71,-10.14 4.04,-8.23 7.27,-17.15 9.67,-26.78 12.03,-48.15 2.69,-106.19 -28.03,-174.06 -23.44,-51.99 -55.76,-102.79 -96.99,-152.44 -49.36,-59.521 -111.709,-105.411 -187.08,-137.7 -11.957,-5.11 -23.992,-9.91 -36.125,-14.399 -9.543,141.609 -28.023,329.529 -55.394,563.749 -7.348,66.51 -14.02,118.39 -20.004,155.63"
         style="fill:#facb07;fill-opacity:1;fill-rule:nonzero;stroke:none"
         id="path108" /><path
         d="m 958.523,1238.4 c 25.082,18.41 45.067,30.84 59.497,37.03 0.33,0.14 0.64,0.27 0.95,0.4 -3.13,-13.55 -15.61,-37.92 -57.157,-77.28 -1.403,14.77 -2.504,28.07 -3.29,39.85 z m -15.601,279.08 c 8.926,6.6 15.918,11.2 21.336,14.39 -4.153,-18.24 -10.801,-36.83 -19.899,-55.67 -0.589,13.68 -1.074,27.48 -1.437,41.28 z m 59.988,288.16 6.45,-25.83 -6.46,25.83 c -12.365,-3.3 -25.744,-8.02 -39.779,-14.03 -10.348,-4.43 -21.25,-9.48 -32.414,-14.99 -0.402,-0.19 -0.797,-0.41 -1.187,-0.62 -27.547,-15.48 -63.372,-39.26 -106.469,-70.69 -0.082,-0.05 -0.16,-0.1 -0.235,-0.16 -48.289,-36.07 -81.722,-59.92 -99.359,-70.89 -9.066,-5.65 -13.887,-16.45 -12.152,-27.25 5.898,-36.74 12.566,-88.65 19.816,-154.28 0,-0.06 0.012,-0.11 0.024,-0.17 27.21,-232.9 45.808,-422.13 55.265,-562.412 0.567,-8.328 4.863,-15.91 11.625,-20.488 6.106,-4.109 13.574,-5.359 20.559,-3.488 0.754,0.199 1.508,0.43 2.246,0.699 12.613,4.68 25.168,9.68 37.297,14.891 78.789,33.75 144.993,82.519 196.783,144.978 42.57,51.25 76.48,104.59 100.8,158.51 33.17,73.3 43.14,137.92 29.62,192.04 -2.85,11.44 -6.78,22.28 -11.65,32.19 -0.13,0.26 -0.25,0.51 -0.39,0.77 -10.68,20.08 -35.64,50.26 -87.67,43.94 21.77,43 37.72,83.77 47.62,121.76 14.95,57.41 16.59,110.36 4.88,157.35 -7.27,30.33 -21.7,52.32 -42.86,65.39 -23.75,14.65 -54.83,16.99 -92.36,6.95 z M 941.445,1145.7 c 77.435,63.72 111.745,113.25 102.925,148.58 -2.57,10.29 -10.87,13.58 -24.86,9.84 -3.44,-0.92 -7.22,-2.26 -11.36,-4.03 -18.537,-7.94 -43.955,-24.16 -76.232,-48.64 1.305,-26.47 4.488,-61.71 9.527,-105.75 m -18.918,246.72 c 36.438,47.59 59.203,94.3 68.289,140.14 2.09,10.13 2.508,17.76 1.231,22.91 -2.25,8.98 -8.844,12.01 -19.781,9.09 -2.348,-0.62 -4.895,-1.53 -7.641,-2.7 -11.969,-5.13 -27.902,-15.52 -47.832,-31.16 0.496,-23.24 1.305,-46.34 2.418,-69.33 l 3.316,-68.95 m 86.833,387.38 c 57.09,15.28 91.67,-2.42 103.77,-53.05 21.32,-85.4 -6.39,-191.83 -83.14,-319.23 15.41,7.87 29.51,13.52 42.3,16.93 37.38,9.99 63.51,0.98 78.41,-27.06 4.04,-8.23 7.26,-17.16 9.67,-26.78 12.02,-48.15 2.69,-106.2 -28.03,-174.07 -23.44,-51.99 -55.76,-102.78 -97,-152.42 C 985.984,984.578 923.633,938.691 848.27,906.41 836.313,901.289 824.273,896.5 812.145,892 c -9.547,141.62 -28.024,329.53 -55.391,563.76 -7.352,66.51 -14.024,118.38 -20.008,155.63 18.332,11.4 52.055,35.45 101.164,72.12 42.559,31.02 77.203,54.03 103.914,69.03 10.61,5.24 20.985,10.06 31.16,14.41 12.993,5.57 25.121,9.85 36.376,12.85"
         style="fill:#100f0d;fill-opacity:1;fill-rule:nonzero;stroke:none"
         id="path110" /><path
         d="m 2394.38,1348.36 c 25.62,251.46 31.44,502.16 17.28,745.12 l -0.93,16.02 251.05,158.44 14.41,-92.09 0.4,59.31 242.64,156.52 5.18,-41.13 c 27.47,-217.66 62.5,-412.42 104.08,-578.89 l 29.5,-118.12 -222.91,-144.54 -28.93,172.46 -0.36,-225.94 -140.8,-84 -40.66,282.76 1.47,-217.22 -236.72,-140.67 5.3,51.97"
         style="fill:#100f0d;fill-opacity:1;fill-rule:nonzero;stroke:none"
         id="path112" /><path
         d="m 2656.62,1434.22 c -2.92,-0.78 -6.05,-0.49 -8.84,0.91 -3.84,1.92 -6.52,5.68 -7.14,10.05 l -62.04,431.32 2.66,-391.04 c 0.04,-4.82 -2.42,-9.27 -6.46,-11.67 l -179.87,-106.9 c -1.02,-0.6 -2.1,-1.05 -3.21,-1.34 -3.45,-0.92 -7.19,-0.34 -10.26,1.74 -4.06,2.74 -6.3,7.59 -5.79,12.57 25.69,252.21 31.53,503.65 17.33,747.34 -0.29,4.93 2.09,9.62 6.16,12.19 l 205.04,129.4 c 1.08,0.68 2.27,1.21 3.49,1.52 2.84,0.76 5.88,0.51 8.62,-0.78 3.9,-1.86 6.65,-5.61 7.33,-10 l 32.84,-209.74 1.37,203.51 c 0.04,4.57 2.32,8.81 6.09,11.23 l 196.54,126.8 c 1.13,0.72 2.35,1.26 3.6,1.59 2.88,0.77 5.98,0.5 8.74,-0.85 3.97,-1.93 6.7,-5.84 7.27,-10.33 27.56,-218.2 62.66,-413.51 104.37,-580.5 l 24.79,-99.2 c 1.39,-5.63 -0.88,-11.56 -5.65,-14.65 l -174.36,-113.06 c -1.13,-0.74 -2.36,-1.27 -3.62,-1.62 -2.8,-0.74 -5.78,-0.5 -8.48,0.74 -3.93,1.8 -6.71,5.51 -7.45,9.9 l -47.72,284.5 -0.58,-364 c -0.02,-4.77 -2.47,-9.16 -6.48,-11.55 l -95.08,-56.71 c -1.01,-0.61 -2.1,-1.07 -3.21,-1.37"
         style="fill:#ffffff;fill-opacity:1;fill-rule:nonzero;stroke:none"
         id="path114" /><path
         d="m 2408.13,1366.49 c 25.91,254.19 31.68,504.03 17.39,749.53 l 205.04,129.4 57.4,-366.6 2.44,362.41 196.54,126.8 c 27.77,-219.85 62.66,-413.88 104.68,-582.1 8.34,-33.4 16.59,-66.46 24.78,-99.21 l -174.37,-113.06 -73.06,435.7 -0.84,-517.47 -95.09,-56.72 -88.99,618.68 3.96,-580.46 -179.88,-106.9"
         style="fill:#facb07;fill-opacity:1;fill-rule:nonzero;stroke:none"
         id="path116" /><path
         d="m 2860.85,2405.84 c -0.34,-0.09 -0.68,-0.19 -1.01,-0.29 -2.43,-0.75 -4.67,-1.86 -6.69,-3.23 l -196.04,-126.47 c -7.5,-4.83 -12.09,-13.31 -12.14,-22.45 l -0.3,-44.64 -8.17,52.16 c -0.14,1.05 -0.34,2.11 -0.6,3.15 -3.55,14.15 -17.4,22.73 -31.09,19.25 -0.11,-0.02 -0.24,-0.06 -0.35,-0.09 -0.32,-0.09 -0.65,-0.18 -0.96,-0.28 -2.37,-0.72 -4.55,-1.78 -6.53,-3.09 l -204.52,-129.08 c -8.15,-5.14 -12.9,-14.53 -12.32,-24.39 14.15,-242.95 8.34,-493.66 -17.29,-745.12 -1.01,-9.97 3.46,-19.69 11.58,-25.17 6.15,-4.15 13.62,-5.32 20.53,-3.46 2.22,0.58 4.36,1.48 6.4,2.69 l 179.86,106.9 c 8.07,4.78 13.02,13.7 12.96,23.33 l -1.39,201.64 35.1,-243.98 c 1.26,-8.75 6.6,-16.27 14.29,-20.11 5.57,-2.78 11.83,-3.36 17.68,-1.8 2.23,0.58 4.38,1.5 6.43,2.71 l 95.09,56.72 c 7.98,4.77 12.9,13.56 12.92,23.09 l 0.33,210.56 22.36,-133.32 c 1.47,-8.77 7.05,-16.19 14.9,-19.81 5.41,-2.49 11.39,-2.96 16.98,-1.46 2.52,0.67 4.96,1.75 7.23,3.23 l 174.36,113.05 c 9.53,6.19 14.1,18.03 11.28,29.29 l -24.78,99.21 c -41.52,166.26 -76.5,360.77 -103.97,578.1 -0.13,1.32 -0.36,2.66 -0.69,4 -3.53,14.16 -17.38,22.71 -31.06,19.27 -0.14,-0.04 -0.25,-0.07 -0.38,-0.11 z m -249.94,-148.45 0.02,0.01 M 2867.3,2380 c 27.76,-219.84 62.66,-413.87 104.67,-582.09 8.35,-33.4 16.6,-66.46 24.78,-99.21 l -174.36,-113.07 -73.06,435.71 -0.84,-517.47 -95.09,-56.73 -88.99,618.68 3.96,-580.46 -179.87,-106.89 c 25.89,254.19 31.67,504.03 17.38,749.52 l 205.03,129.4 57.4,-366.6 2.44,362.41 196.55,126.8 m 0,0 0.01,0.01"
         style="fill:#100f0d;fill-opacity:1;fill-rule:nonzero;stroke:none"
         id="path118" /><path
         d="m 1501.03,1283.11 c 8.78,-6 18.4,-7.33 30.26,-4.16 3.11,0.84 6.39,1.99 9.75,3.42 26.4,11.3 47.27,38.27 62.05,80.14 12.85,36.15 19.03,75.61 18.39,117.31 -0.62,49.25 -9.46,94.76 -26.26,135.32 -16.67,38.3 -29.44,34.9 -33.64,33.78 -1.27,-0.35 -2.62,-0.81 -4.01,-1.42 -17.23,-7.38 -42.31,-32.85 -63.87,-112.29 -15.4,-54.81 -23.12,-105.54 -23.03,-150.99 0.37,-23.13 2.65,-43.19 6.75,-59.65 4.93,-19.73 12.87,-33.68 23.61,-41.46 z m 7.94,-249.31 c -81.49,-21.79 -137.18,27.7 -169.55,73.06 -24.34,34.27 -42.92,76.64 -55.24,125.93 -11.85,47.47 -17.95,102.44 -18.12,163.38 -0.5,102.64 17.39,206.12 53.2,307.5 45.53,128.3 109.87,211.01 191.2,245.84 8.52,3.65 17.07,6.63 25.39,8.85 81.08,21.68 136.28,-28.18 168.32,-73.84 25.32,-35.81 44.49,-79.31 56.96,-129.23 11.71,-46.84 17.95,-100.97 18.55,-160.87 0.33,-102.31 -17.96,-205.61 -54.38,-307.23 -45.69,-127.58 -109.78,-209.81 -190.51,-244.39 -8.66,-3.71 -17.35,-6.74 -25.82,-9"
         style="fill:#100f0d;fill-opacity:1;fill-rule:nonzero;stroke:none"
         id="path120" /><path
         d="m 1526.82,1694.75 c -1.85,-0.49 -3.78,-1.18 -5.72,-2.01 -28.91,-12.38 -52.91,-53.09 -71.34,-121 -15.75,-56 -23.65,-108.05 -23.51,-154.83 0.37,-24.07 2.78,-45.24 7.15,-62.76 5.76,-23.03 15.49,-39.59 28.92,-49.22 11.76,-8.13 25.13,-10.14 40.66,-5.98 0.01,0 0.01,0 0.01,0 3.68,0.98 7.53,2.33 11.45,4.01 29.87,12.79 53.16,42.35 69.24,87.88 13.38,37.69 19.83,78.76 19.17,122.11 -0.66,51.05 -9.87,98.34 -27.39,140.58 -21.08,48.59 -41.83,43.04 -48.64,41.22 z m -52.6,-615.12 c -59.84,-16 -112.32,6.9 -155.95,68.08 -23.36,32.88 -41.23,73.7 -53.13,121.33 -11.59,46.41 -17.55,100.27 -17.72,160.09 -0.5,101.08 17.14,202.99 52.42,302.88 44.24,124.64 106.15,204.74 184.03,238.09 7.97,3.42 15.93,6.19 23.68,8.26 59.45,15.9 111.47,-7.23 154.64,-68.76 24.38,-34.47 42.87,-76.46 54.93,-124.74 11.44,-45.8 17.54,-98.83 18.13,-157.66 0.33,-100.62 -17.7,-202.35 -53.57,-302.46 -44.39,-123.97 -106.08,-203.6 -183.35,-236.69 -8.12,-3.48 -16.23,-6.31 -24.11,-8.42"
         style="fill:#ffffff;fill-opacity:1;fill-rule:nonzero;stroke:none"
         id="path122" /><path
         d="m 1535.81,1693.11 c -32.9,-14.11 -59.18,-57.34 -78.84,-129.73 -16.13,-57.39 -24.11,-110.21 -23.98,-158.48 0.39,-25.42 2.92,-47.44 7.57,-66.06 6.57,-26.34 17.92,-45.29 34.07,-56.86 18.4,-12.73 39.85,-13.84 64.38,-3.33 33.49,14.34 58.97,46.21 76.42,95.63 14,39.4 20.64,81.71 19.95,126.9 -0.67,53.02 -10.15,101.55 -28.43,145.63 -18.72,43.15 -42.44,58.58 -71.14,46.3 z m -27.37,252.69 c 63.39,27.15 117.71,8.47 162.97,-56.01 23.53,-33.3 41.16,-73.37 52.87,-120.24 11.22,-44.95 17.13,-96.44 17.72,-154.47 0.32,-99.38 -17.27,-198.62 -52.77,-297.68 -43.3,-120.9 -102.03,-197.24 -176.19,-229 -64.01,-27.41 -118.91,-9.01 -164.75,55.25 -22.45,31.6 -39.46,70.52 -51.02,116.76 -11.38,45.59 -17.14,97.85 -17.31,156.79 -0.49,100.01 16.73,199.42 51.64,298.25 43.14,121.54 102.07,198.32 176.84,230.35"
         style="fill:#facb07;fill-opacity:1;fill-rule:nonzero;stroke:none"
         id="path124" /><path
         d="m 1439.15,1417.12 c -0.11,45.47 7.61,96.19 22.95,150.78 0.02,0.08 0.04,0.17 0.07,0.23 21.57,79.44 46.63,104.92 63.86,112.28 1.39,0.61 2.74,1.07 4.01,1.43 4.2,1.11 16.98,4.53 33.66,-33.79 16.79,-40.57 25.61,-86.06 26.24,-135.24 0.65,-41.77 -5.54,-81.23 -18.36,-117.34 -14.8,-41.92 -35.68,-68.87 -62.07,-80.19 -3.37,-1.43 -6.65,-2.58 -9.75,-3.41 -11.86,-3.18 -21.48,-1.85 -30.27,4.17 -10.73,7.77 -18.67,21.71 -23.6,41.45 -4.11,16.46 -6.38,36.51 -6.74,59.63 z m 65.18,574.17 6.46,-25.84 -6.46,25.84 h -0.01 c -8.33,-2.23 -16.87,-5.22 -25.39,-8.87 -81.34,-34.83 -145.67,-117.53 -191.19,-245.79 -35.82,-101.42 -53.72,-204.91 -53.21,-307.6 0.17,-60.88 6.27,-115.85 18.13,-163.33 12.31,-49.29 30.88,-91.65 55.2,-125.88 22.9,-32.09 48.63,-54.61 76.51,-66.97 28.98,-12.83 60.29,-14.9 93.07,-6.13 8.47,2.25 17.16,5.29 25.83,9 80.71,34.57 144.82,116.8 190.5,244.39 36.42,101.61 54.71,204.92 54.37,307.04 0,0.06 0,0.13 0,0.18 -0.6,59.91 -6.84,114.04 -18.53,160.87 -12.47,49.92 -31.66,93.43 -57.03,129.32 -22.56,32.14 -48.04,54.8 -75.69,67.3 -28.8,13.01 -59.94,15.19 -92.56,6.47 z m 1.88,-705.26 c 4.29,1.14 8.67,2.68 13.17,4.59 33.48,14.35 58.96,46.22 76.42,95.65 13.99,39.39 20.63,81.69 19.94,126.88 -0.68,53.03 -10.15,101.57 -28.43,145.64 -17.08,39.37 -38.33,55.67 -63.72,48.89 -2.44,-0.66 -4.91,-1.53 -7.43,-2.6 -32.9,-14.1 -59.17,-57.33 -78.83,-129.73 -16.13,-57.38 -24.11,-110.2 -23.98,-158.48 0.4,-25.41 2.91,-47.44 7.56,-66.05 6.58,-26.35 17.93,-45.29 34.07,-56.86 15.03,-10.41 32.11,-13.05 51.23,-7.93 m 4.56,679.42 c 54.06,14.45 101.06,-6.78 140.99,-63.69 23.54,-33.28 41.16,-73.36 52.86,-120.24 11.23,-44.95 17.14,-96.44 17.74,-154.46 0.31,-99.38 -17.28,-198.62 -52.77,-297.69 -43.3,-120.89 -102.04,-197.22 -176.19,-229 -7.59,-3.24 -15.07,-5.85 -22.41,-7.81 -54.51,-14.57 -101.95,6.44 -142.35,63.06 -22.44,31.61 -39.47,70.53 -51.01,116.76 -11.38,45.59 -17.14,97.85 -17.31,156.79 -0.49,100.01 16.73,199.43 51.63,298.26 43.14,121.53 102.07,198.32 176.85,230.34 7.45,3.19 14.78,5.75 21.97,7.68"
         style="fill:#100f0d;fill-opacity:1;fill-rule:nonzero;stroke:none"
         id="path126" /><path
         d="m 2075.37,1403.98 c 8.78,-6.01 18.41,-7.34 30.26,-4.17 3.11,0.83 6.39,1.99 9.76,3.42 26.39,11.32 47.27,38.27 62.05,80.14 12.84,36.16 19.03,75.61 18.39,117.31 -0.62,49.26 -9.46,94.77 -26.25,135.32 -16.68,38.32 -29.45,34.9 -33.65,33.79 -1.28,-0.36 -2.63,-0.83 -4.02,-1.42 -17.23,-7.38 -42.29,-32.85 -63.86,-112.3 -15.41,-54.81 -23.14,-105.54 -23.02,-150.99 0.36,-23.13 2.63,-43.19 6.74,-59.64 4.92,-19.74 12.87,-33.69 23.6,-41.46 z m 7.96,-249.32 c -81.51,-21.79 -137.2,27.7 -169.57,73.05 -24.34,34.29 -42.91,76.65 -55.23,125.94 -11.86,47.48 -17.95,102.45 -18.11,163.38 -0.52,102.64 17.38,206.12 53.18,307.51 45.54,128.3 109.87,211.01 191.21,245.83 8.52,3.66 17.07,6.64 25.39,8.87 81.08,21.67 136.27,-28.2 168.32,-73.85 25.31,-35.8 44.5,-79.32 56.97,-129.24 11.69,-46.83 17.93,-100.96 18.53,-160.86 0.34,-102.31 -17.96,-205.62 -54.36,-307.24 -45.7,-127.58 -109.81,-209.81 -190.53,-244.38 -8.65,-3.71 -17.34,-6.75 -25.8,-9.01"
         style="fill:#100f0d;fill-opacity:1;fill-rule:nonzero;stroke:none"
         id="path128" /><path
         d="m 2101.16,1815.62 c -1.84,-0.5 -3.77,-1.17 -5.71,-2.01 -28.91,-12.38 -52.91,-53.08 -71.35,-121 -15.74,-56 -23.64,-108.06 -23.5,-154.83 0.36,-24.07 2.77,-45.24 7.14,-62.76 5.76,-23.04 15.49,-39.59 28.93,-49.22 11.76,-8.14 25.13,-10.15 40.66,-5.99 v 0 c 3.69,0.98 7.53,2.34 11.46,4.02 29.86,12.79 53.16,42.36 69.23,87.87 13.39,37.69 19.83,78.77 19.17,122.11 -0.65,51.05 -9.87,98.35 -27.39,140.58 -21.08,48.6 -41.82,43.05 -48.64,41.23 z m -52.6,-615.11 c -59.84,-16.01 -112.31,6.89 -155.94,68.06 -23.36,32.88 -41.23,73.7 -53.13,121.33 -11.59,46.41 -17.56,100.28 -17.72,160.1 -0.5,101.06 17.14,202.99 52.42,302.87 44.23,124.65 106.14,204.75 184.02,238.1 7.97,3.42 15.94,6.2 23.68,8.26 59.46,15.89 111.48,-7.24 154.65,-68.76 24.39,-34.47 42.86,-76.45 54.92,-124.74 11.44,-45.8 17.54,-98.85 18.14,-157.66 0.32,-100.61 -17.71,-202.35 -53.57,-302.46 -44.4,-123.97 -106.08,-203.6 -183.34,-236.7 -8.13,-3.47 -16.23,-6.3 -24.13,-8.4"
         style="fill:#ffffff;fill-opacity:1;fill-rule:nonzero;stroke:none"
         id="path130" /><path
         d="m 2110.16,1813.96 c -32.91,-14.09 -59.18,-57.33 -78.84,-129.72 -16.12,-57.38 -24.11,-110.2 -23.99,-158.48 0.39,-25.41 2.92,-47.44 7.57,-66.05 6.58,-26.35 17.93,-45.3 34.07,-56.86 18.4,-12.73 39.86,-13.84 64.39,-3.34 33.49,14.35 58.96,46.22 76.42,95.65 13.99,39.39 20.64,81.69 19.95,126.89 -0.68,53.01 -10.15,101.56 -28.43,145.63 -18.72,43.15 -42.44,58.58 -71.14,46.28 z m -27.38,252.7 c 63.39,27.15 117.72,8.47 162.97,-56.02 23.53,-33.28 41.16,-73.35 52.87,-120.23 11.23,-44.95 17.13,-96.45 17.72,-154.46 0.32,-99.39 -17.27,-198.62 -52.77,-297.69 -43.3,-120.9 -102.03,-197.23 -176.19,-229 -64,-27.41 -118.9,-9 -164.75,55.25 -22.44,31.6 -39.46,70.53 -51.01,116.76 -11.39,45.59 -17.14,97.85 -17.31,156.79 -0.49,100.01 16.73,199.43 51.63,298.26 43.14,121.53 102.08,198.32 176.84,230.34"
         style="fill:#facb07;fill-opacity:1;fill-rule:nonzero;stroke:none"
         id="path132" /><path
         d="m 2013.49,1537.99 c -0.11,45.46 7.61,96.19 22.96,150.77 0.01,0.09 0.03,0.17 0.06,0.23 21.58,79.44 46.63,104.91 63.86,112.3 1.4,0.58 2.75,1.07 4.01,1.41 4.21,1.12 17,4.54 33.66,-33.77 16.79,-40.57 25.62,-86.08 26.25,-135.26 0.65,-41.78 -5.54,-81.23 -18.36,-117.33 -14.81,-41.92 -35.69,-68.88 -62.08,-80.19 -3.36,-1.44 -6.64,-2.6 -9.75,-3.43 -11.85,-3.16 -21.48,-1.84 -30.26,4.17 -10.73,7.78 -18.68,21.73 -23.61,41.47 -4.11,16.44 -6.36,36.5 -6.74,59.63 z m 65.19,574.16 6.45,-25.84 -6.46,25.84 v 0 c -8.33,-2.23 -16.86,-5.21 -25.39,-8.85 -81.34,-34.84 -145.66,-117.54 -191.19,-245.81 -35.82,-101.42 -53.73,-204.89 -53.22,-307.59 0.17,-60.88 6.27,-115.85 18.12,-163.33 12.33,-49.3 30.9,-91.65 55.21,-125.89 22.91,-32.09 48.63,-54.6 76.52,-66.96 28.98,-12.84 60.28,-14.9 93.07,-6.14 8.46,2.26 17.15,5.29 25.82,9 80.72,34.57 144.82,116.81 190.52,244.4 36.39,101.6 54.69,204.91 54.37,307.04 -0.01,0.06 0,0.11 -0.01,0.18 -0.61,59.91 -6.85,114.03 -18.53,160.87 -12.48,49.92 -31.67,93.43 -57.03,129.32 -22.56,32.14 -48.05,54.8 -75.69,67.29 -28.81,13.02 -59.94,15.19 -92.56,6.47 z m 1.88,-705.26 c 4.28,1.15 8.67,2.68 13.15,4.59 33.49,14.36 58.98,46.23 76.43,95.65 13.99,39.39 20.63,81.7 19.94,126.89 -0.68,53.03 -10.14,101.57 -28.42,145.63 -17.09,39.37 -38.33,55.67 -63.72,48.89 -2.44,-0.66 -4.91,-1.52 -7.43,-2.59 -32.9,-14.09 -59.17,-57.34 -78.83,-129.73 -16.13,-57.39 -24.12,-110.2 -23.98,-158.49 0.39,-25.41 2.92,-47.44 7.55,-66.05 6.59,-26.34 17.93,-45.28 34.07,-56.86 15.05,-10.4 32.12,-13.04 51.24,-7.93 m 4.57,679.42 c 54.06,14.46 101.05,-6.78 140.97,-63.69 23.54,-33.28 41.17,-73.36 52.86,-120.22 11.25,-44.96 17.16,-96.45 17.74,-154.47 0.32,-99.39 -17.27,-198.62 -52.76,-297.7 -43.31,-120.89 -102.05,-197.22 -176.2,-228.99 -7.59,-3.25 -15.06,-5.86 -22.4,-7.82 -54.51,-14.57 -101.95,6.44 -142.35,63.06 -22.44,31.61 -39.47,70.54 -51.01,116.77 -11.39,45.58 -17.14,97.84 -17.31,156.78 -0.5,100.01 16.72,199.43 51.63,298.26 43.14,121.53 102.07,198.33 176.84,230.34 7.46,3.21 14.78,5.76 21.99,7.68"
         style="fill:#100f0d;fill-opacity:1;fill-rule:nonzero;stroke:none"
         id="path134" /><path
         d="m 3160.09,2407.44 255.69,60.82 -9.13,-41.46 c -25.5,-115.76 -43.36,-206.46 -53.08,-269.57 -13.01,-85.82 -21.14,-177.58 -24.13,-272.62 l -0.56,-18.03 -177.72,-67.11 z m 58.4,-891.29 c -12.05,-3.22 -23.95,-4.29 -35.37,-3.21 l -0.37,0.04 c -31.87,3.51 -53.92,23.45 -62.08,56.11 -9.15,36.64 -0.86,77.19 24.67,120.5 20.08,33.5 45.52,59.42 75.72,77.21 11.22,6.77 22.79,11.83 34.15,14.88 13.33,3.56 26.67,4.45 39.65,2.64 32.31,-3.33 54.56,-23.09 62.71,-55.71 9.23,-36.94 0.1,-77.63 -27.1,-120.95 -20.01,-32.37 -45.16,-57.72 -74.61,-75.18 -12.62,-7.56 -25.23,-13.08 -37.37,-16.33"
         style="fill:#100f0d;fill-opacity:1;fill-rule:nonzero;stroke:none"
         id="path136" /><path
         d="m 3149.22,1857.83 c -3.67,-0.97 -7.6,-0.24 -10.71,2.05 -3.46,2.54 -5.48,6.68 -5.41,11.08 l 8.04,548.28 c 0.09,6.03 4.07,11.22 9.67,12.71 0.11,0.04 196.27,46.69 196.27,46.69 4.32,1.04 8.86,-0.31 11.99,-3.55 3.15,-3.25 4.46,-7.94 3.47,-12.41 -25.56,-116.05 -43.47,-207.04 -53.24,-270.43 -13.11,-86.41 -21.27,-178.7 -24.28,-274.29 -0.17,-5.44 -3.53,-10.23 -8.47,-12.1 l -126.15,-47.64 c -0.39,-0.14 -0.79,-0.27 -1.18,-0.39 z M 3183.73,1562 c -10.61,-2.84 -21.02,-3.8 -30.96,-2.85 -26.71,2.94 -44.32,18.91 -51.14,46.19 -8.24,33.02 -0.45,70.1 23.18,110.22 18.89,31.51 42.8,55.9 71.1,72.56 10.31,6.24 20.78,10.83 31,13.55 11.78,3.15 23.53,3.92 34.92,2.3 27.04,-2.7 44.91,-18.53 51.71,-45.79 8.29,-33.16 -0.26,-70.29 -25.42,-110.33 -18.92,-30.62 -42.55,-54.49 -70.21,-70.88 -11.65,-6.98 -23.17,-12.03 -34.18,-14.97"
         style="fill:#ffffff;fill-opacity:1;fill-rule:nonzero;stroke:none"
         id="path138" /><path
         d="m 3173.68,2407.06 195.93,46.6 c -25.76,-116.95 -43.56,-207.37 -53.41,-271.3 -13.26,-87.42 -21.4,-179.41 -24.42,-275.93 l -126.15,-47.64 z m 48.25,-642.51 c 20.13,12.17 39.49,16.91 58.03,14.2 21.71,-2.09 35.28,-14.06 40.74,-35.88 7.38,-29.53 -0.54,-62.79 -23.75,-99.73 -17.93,-29 -39.85,-51.19 -65.81,-66.56 -20.72,-12.43 -39.92,-17.8 -57.54,-16.12 -21.1,2.32 -34.39,14.4 -39.84,36.25 -7.37,29.52 -0.13,62.84 21.72,99.92 17.75,29.64 39.9,52.28 66.45,67.92"
         style="fill:#facb07;fill-opacity:1;fill-rule:nonzero;stroke:none"
         id="path140" /><path
         d="m 3223.68,1814.59 c -11.33,-3.03 -22.86,-8.06 -34.28,-14.95 -30.14,-17.78 -55.54,-43.68 -75.49,-76.96 -0.03,-0.06 -0.07,-0.12 -0.1,-0.18 -25.53,-43.3 -33.82,-83.85 -24.67,-120.49 8.16,-32.66 30.21,-52.6 62.08,-56.11 0.12,-0.02 0.24,-0.03 0.36,-0.04 11.43,-1.08 23.32,0 35.38,3.22 12.14,3.24 24.75,8.75 37.47,16.39 29.33,17.37 54.45,42.67 74.54,75.17 27.18,43.3 36.29,83.97 27.07,120.88 -8.15,32.62 -30.41,52.39 -62.72,55.71 -12.98,1.8 -26.31,0.92 -39.64,-2.64 z m -76.1,630.29 c -11.22,-3 -19.16,-13.4 -19.34,-25.43 l -8.05,-548.29 c -0.12,-8.78 3.93,-17.06 10.85,-22.16 6.23,-4.59 14.07,-6.03 21.39,-4.08 0.8,0.22 1.61,0.47 2.4,0.76 l 126.15,47.64 c 9.89,3.73 16.59,13.32 16.94,24.21 2.97,95.05 11.09,186.79 24.13,272.67 9.71,63.05 27.57,153.75 53.06,269.51 1.98,8.96 -0.65,18.34 -6.94,24.82 -6.27,6.49 -15.34,9.18 -23.99,7.11 l -195.93,-46.59 c -0.21,-0.05 -0.45,-0.11 -0.67,-0.17 z m 82.56,-656.13 c 10.28,2.75 20.34,3.41 30.18,1.97 21.7,-2.09 35.29,-14.05 40.74,-35.87 7.37,-29.54 -0.55,-62.79 -23.76,-99.73 -17.92,-29.01 -39.84,-51.19 -65.81,-66.57 -10.73,-6.44 -21.07,-10.98 -30.98,-13.64 -9.21,-2.46 -18.07,-3.29 -26.55,-2.47 -21.1,2.33 -34.4,14.4 -39.84,36.24 -7.38,29.52 -0.13,62.84 21.72,99.93 17.75,29.63 39.9,52.28 66.45,67.91 9.46,5.72 18.74,9.8 27.85,12.23 m -76.11,630.29 195.94,46.6 c -25.77,-116.95 -43.55,-207.38 -53.41,-271.29 -13.26,-87.44 -21.39,-179.43 -24.42,-275.95 l -126.15,-47.64 8.04,548.28"
         style="fill:#100f0d;fill-opacity:1;fill-rule:nonzero;stroke:none"
         id="path142" /></g></g></svg>
